# ProBuilder 4.5.2
# https://unity3d.com/unity/features/worldbuilding/probuilder
# 31.03.2022 14:30:24

mtllib ./anglewall_right(middle).mtl
o anglewall_right(middle)

g anglewall_right(middle)
v -0.5 -0.46 0.6
v -0.3 -0.46 0.6
v -0.5 0.46 0.6
v -0.3 0.46 0.6
v -0.3 -0.46 -0.4
v -0.3 0.46 -0.4
v -0.5 -0.46 -0.4
v -0.5 0.46 -0.4
v -0.5 0.5 0.6
v -0.3 0.5 0.6
v -0.5 0.5 -0.4
v -0.3 0.5 -0.4
v -0.5 -0.5 -0.4
v -0.3 -0.5 -0.4
v -0.5 -0.5 0.6
v -0.3 -0.5 0.6
v 0.5000001 -0.46 -0.4000001
v 0.5000001 -0.46 -0.6000001
v 0.5000001 0.46 -0.4000001
v 0.5000001 0.46 -0.6000001
v -0.4300001 -0.46 -0.6
v -0.4300001 0.46 -0.6
v -0.5000001 -0.46 -0.53
v -0.5000001 0.46 -0.53
v -0.4641422 -0.46 -0.5858579
v -0.4641422 0.46 -0.5858579
v -0.485858 -0.46 -0.5641422
v -0.485858 0.46 -0.5641422
v -0.485858 0.5000001 -0.5641422
v -0.5000001 0.5000001 -0.53
v 0.5000001 0.5000001 -0.4000001
v 0.5000001 0.5000001 -0.6000001
v -0.4300001 0.5000001 -0.6
v -0.4641422 0.5000001 -0.5858579
v -0.5000001 -0.5 -0.53
v -0.485858 -0.5 -0.5641422
v -0.4641422 -0.5 -0.5858579
v -0.4300001 -0.5 -0.6
v 0.5000001 -0.5 -0.6000001
v 0.5000001 -0.5 -0.4000001

vt -0.5 -0.46
vt -0.3 -0.46
vt -0.5 0.46
vt -0.3 0.46
vt -0.6 -0.46
vt 0.4 -0.46
vt -0.6 0.46
vt 0.4 0.46
vt 0.3 -0.46
vt 0.5 -0.46
vt 0.3 0.46
vt 0.5 0.46
vt -0.4 -0.46
vt 0.6 -0.46
vt -0.4 0.46
vt 0.6 0.46
vt 0.5 0.6
vt 0.3 0.6
vt 0.5 -0.4
vt 0.3 -0.4
vt -0.5 -0.4
vt -0.3 -0.4
vt -0.5 0.6
vt -0.3 0.6
vt 1 -0.46
vt 1.2 -0.46
vt 1 0.46
vt 1.2 0.46
vt 0.5 -0.46
vt -0.43 -0.46
vt -0.43 0.46
vt 0.02999996 -0.46
vt -0.1 -0.46
vt 0.02999996 0.46
vt -0.1 0.46
vt -0.09999993 -0.46
vt 0.9000002 -0.46
vt -0.09999993 0.46
vt 0.9000002 0.46
vt 0.3642645 0.5846448
vt 1.284264 0.5846447
vt 0.3642645 0.6153555
vt 1.284264 0.6153554
vt 0.1261358 0.6184777
vt 1.046135 0.6184777
vt 0.1261358 0.5815225
vt 1.046135 0.5815225
vt -1.176791 0.6184777
vt -0.2567921 0.6184777
vt -1.176791 0.5815225
vt -0.2567921 0.5815225
vt -0.335858 0.5858579
vt -0.37 0.6
vt -0.4999999 -0.3999999
vt -0.3000002 0.53
vt -0.3141423 0.5641421
vt 0.3700001 0.6
vt 0.335858 0.5858579
vt 0.3141423 0.5641421
vt 0.3000001 0.53
vt 0.3 -0.3999999
vt 0.4999999 -0.3999999
vt -0.6967918 1.061522
vt -0.6967918 1.098478
vt -0.7367917 1.061522
vt -0.7367917 1.098478
vt -0.4507101 1.064645
vt -0.4507101 1.095356
vt -0.4907101 1.064645
vt -0.4907101 1.095356
vt -0.1938646 1.061522
vt -0.1938646 1.098478
vt -0.2338645 1.061522
vt -0.2338645 1.098478
vt -0.845 1.015
vt -0.845 1.145
vt -0.885 1.015
vt -0.885 1.145
vt 0.1200001 0.9800001
vt 0.1200001 1.18
vt 0.0800001 0.9800001
vt 0.0800001 1.18
vt -0.4150001 0.6150001
vt -0.4150001 1.545
vt -0.4550001 0.6150001
vt -0.4550001 1.545
vt -0.38 0.5800002
vt -0.38 1.58
vt -0.42 0.5800002
vt -0.42 1.58
vt -0.5 0.5
vt -0.3 0.5
vt -0.4 0.5
vt 0.6 0.5
vt -0.6 0.5
vt 0.4 0.5
vt 0.3 0.5
vt 0.5 0.5
vt 0.5 -0.5
vt 0.3 -0.5
vt 0.6 -0.5
vt -0.4 -0.5
vt 0.4 -0.5
vt -0.6 -0.5
vt -0.3 -0.5
vt -0.5 -0.5
vt 0.42 -0.3799999
vt 0.4200001 0.6200001
vt 0.3800001 -0.3799999
vt 0.3800001 0.6200001
vt 0.3849999 -0.3449999
vt 0.3849999 0.585
vt 0.3449999 -0.3449999
vt 0.345 0.585
vt 0.9200001 0.02000004
vt 0.9200001 0.2200001
vt 0.8800001 0.02000004
vt 0.8800001 0.2200001
vt -0.04499999 0.05500007
vt -0.04499999 0.1850001
vt -0.08499995 0.05500007
vt -0.08499995 0.1850001
vt 0.6061355 0.1015225
vt 0.6061355 0.1384777
vt 0.5661355 0.1015225
vt 0.5661355 0.1384777
vt 0.1032083 0.1015225
vt 0.1032083 0.1384777
vt 0.06320834 0.1015225
vt 0.06320834 0.1384777
vt 0.3492899 0.1046447
vt 0.3492899 0.1353554
vt 0.3092899 0.1046447
vt 0.3092899 0.1353554

vn 0 0 1
vn 1 0 0
vn 0 0 -1
vn -1 0 0
vn 0 1 0
vn 0 -1 0
vn -0.7071064 0 -0.7071072
vn -0.3826839 0 -0.9238794
vn -0.9238794 0 -0.3826839

usemtl Front
f 1/1/1 2/2/1 4/4/1 3/3/1
f 2/5/2 5/6/2 6/8/2 4/7/2
f 5/9/3 7/10/3 8/12/3 6/11/3
f 7/13/4 1/14/4 3/16/4 8/15/4
f 17/25/2 18/26/2 20/28/2 19/27/2
f 18/29/3 21/30/3 22/31/3 20/12/3
f 23/32/4 7/33/4 8/35/4 24/34/4
f 7/36/1 17/37/1 19/39/1 8/38/1
f 25/40/7 27/42/7 28/43/7 26/41/7
f 21/44/8 25/46/8 26/47/8 22/45/8
f 24/48/9 28/50/9 27/51/9 23/49/9
f 6/11/3 8/12/3 11/98/3 12/97/3
f 7/10/3 5/9/3 14/100/3 13/99/3

usemtl UP
f 31/54/5 33/55/5 11/23/5
f 31/54/5 32/22/5 33/55/5
f 11/23/5 33/55/5 30/53/5
f 34/56/5 30/53/5 33/55/5
f 29/52/5 30/53/5 34/56/5
f 10/18/5 12/20/5 11/19/5
f 11/19/5 9/17/5 10/18/5
f 24/64/9 30/66/9 29/65/9
f 29/65/9 28/63/9 24/64/9
f 28/68/7 29/70/7 34/69/7
f 34/69/7 26/67/7 28/68/7
f 26/72/8 34/74/8 33/73/8
f 33/73/8 22/71/8 26/72/8
f 8/76/4 11/78/4 30/77/4
f 30/77/4 24/75/4 8/76/4
f 20/80/2 32/82/2 31/81/2
f 31/81/2 19/79/2 20/80/2
f 22/84/3 33/86/3 32/85/3
f 32/85/3 20/83/3 22/84/3
f 19/88/1 31/90/1 11/89/1
f 11/89/1 8/87/1 19/88/1
f 4/4/1 10/92/1 9/91/1
f 9/91/1 3/3/1 4/4/1
f 3/16/4 9/94/4 11/93/4
f 11/93/4 8/15/4 3/16/4
f 6/8/2 12/96/2 10/95/2
f 10/95/2 4/7/2 6/8/2

usemtl Down
f 37/59/6 35/57/6 36/58/6
f 38/60/6 35/57/6 37/59/6
f 35/57/6 38/60/6 13/17/6
f 38/60/6 39/61/6 40/62/6
f 13/17/6 38/60/6 40/62/6
f 14/22/6 16/24/6 15/23/6
f 15/23/6 13/21/6 14/22/6
f 7/13/4 13/102/4 15/101/4
f 15/101/4 1/14/4 7/13/4
f 2/5/2 16/104/2 14/103/2
f 14/103/2 5/6/2 2/5/2
f 1/1/1 15/106/1 16/105/1
f 16/105/1 2/2/1 1/1/1
f 7/108/1 13/110/1 40/109/1
f 40/109/1 17/107/1 7/108/1
f 18/112/3 39/114/3 38/113/3
f 38/113/3 21/111/3 18/112/3
f 17/116/2 40/118/2 39/117/2
f 39/117/2 18/115/2 17/116/2
f 23/120/4 35/122/4 13/121/4
f 13/121/4 7/119/4 23/120/4
f 21/124/8 38/126/8 37/125/8
f 37/125/8 25/123/8 21/124/8
f 27/128/9 36/130/9 35/129/9
f 35/129/9 23/127/9 27/128/9
f 25/132/7 37/134/7 36/133/7
f 36/133/7 27/131/7 25/132/7

