# ProBuilder 4.5.2
# https://unity3d.com/unity/features/worldbuilding/probuilder
# 30.03.2022 12:42:02

mtllib ./Wall.mtl
o Wall

g Cube (1)
v 0 0 -0.75
v -1 0 -0.75
v 0 1 -0.75
v -1 1 -0.75
v -1 0 -1
v -1 1 -1
v 0 0 -1
v 0 1 -1
v 0 1.03582 -0.75
v -1 1.03582 -0.75
v 0 1.03582 -1
v -1 1.03582 -1

vt 0 0
vt -1 0
vt 0 1
vt -1 1
vt -0.75 0
vt -0.75 1
vt 1 0
vt 1 1
vt 0.75 0
vt 0.75 1
vt 0 -0.75
vt 1 -0.75
vt 0 -1
vt 1 -1
vt -1 -1
vt -1 -0.75
vt 0 1.03582
vt -1 1.03582
vt 1 1.03582
vt 0.75 1.03582
vt -0.75 1.03582
vt 1 -0.375
vt 0 -0.375

vn 0 0 1
vn -1 0 0
vn 0 0 -1
vn 1 0 0
vn 0 1 0
vn 0 -1 0
vn 0 0 -0.005181347

usemtl Up
f 11/17/7 11/17/7 11/17/7
f 11/17/7 11/17/7 11/17/7
f 11/17/7 11/17/7 11/17/7
f 11/17/7 11/17/7 11/17/7
f 11/17/7 11/17/7 11/17/7
f 11/17/7 11/17/7 11/17/7
f 11/17/7 11/17/7 11/17/7
f 11/17/7 11/17/7 11/17/7
f 11/17/7 11/17/7 11/17/7
f 11/17/7 11/17/7 11/17/7
f 11/17/7 11/17/7 11/17/7
f 11/17/7 11/17/7 11/17/7
f 11/17/7 11/17/7 11/17/7
f 11/17/7 11/17/7 11/17/7
f 11/17/7 11/17/7 11/17/7
f 11/17/7 11/17/7 11/17/7
f 11/17/7 11/17/7 11/17/7
f 11/17/7 11/17/7 11/17/7
f 11/17/7 11/17/7 11/17/7
f 11/17/7 11/17/7 11/17/7
f 11/17/7 11/17/7 11/17/7
f 11/17/7 11/17/7 11/17/7
f 11/17/7 11/17/7 11/17/7
f 11/17/7 11/17/7 11/17/7
f 11/17/7 11/17/7 11/17/7
f 11/17/7 11/17/7 11/17/7
f 11/17/7 11/17/7 11/17/7
f 11/17/7 11/17/7 11/17/7
f 11/17/7 11/17/7 11/17/7
f 11/17/7 11/17/7 11/17/7
f 11/17/7 11/17/7 11/17/7
f 11/17/7 11/17/7 11/17/7
f 11/17/7 11/17/7 11/17/7
f 11/17/7 11/17/7 11/17/7
f 11/17/7 11/17/7 11/17/7
f 11/17/7 11/17/7 11/17/7
f 11/17/7 11/17/7 11/17/7
f 11/17/7 11/17/7 11/17/7
f 11/17/7 11/17/7 11/17/7
f 11/17/7 11/17/7 11/17/7
f 11/17/7 11/17/7 11/17/7
f 11/17/7 11/17/7 11/17/7
f 11/17/7 11/17/7 11/17/7
f 11/17/7 11/17/7 11/17/7
f 11/17/7 11/17/7 11/17/7
f 11/17/7 11/17/7 11/17/7
f 11/17/7 11/17/7 11/17/7
f 11/17/7 11/17/7 11/17/7
f 11/17/7 11/17/7 11/17/7
f 11/17/7 11/17/7 11/17/7
f 11/17/7 11/17/7 11/17/7
f 11/17/7 11/17/7 11/17/7
f 11/17/7 11/17/7 11/17/7
f 11/17/7 11/17/7 11/17/7
f 11/17/7 11/17/7 11/17/7
f 11/17/7 11/17/7 11/17/7
f 11/17/7 11/17/7 11/17/7
f 11/17/7 11/17/7 11/17/7
f 11/17/7 11/17/7 11/17/7
f 11/17/7 11/17/7 11/17/7
f 11/17/7 11/17/7 11/17/7
f 11/17/7 11/17/7 11/17/7
f 11/17/7 11/17/7 11/17/7
f 11/17/7 11/17/7 11/17/7
f 12/14/5 10/12/5 9/11/5
f 9/11/5 11/13/5 12/14/5
f 10/18/1 4/4/1 3/3/1
f 3/3/1 9/17/1 10/18/1
f 9/20/4 3/10/4 8/8/4
f 8/8/4 11/19/4 9/20/4
f 12/18/2 6/4/2 4/6/2
f 4/6/2 10/21/2 12/18/2
f 11/17/7 8/23/3 6/22/3
f 6/22/3 12/19/3 11/17/7

usemtl Front
f 3/3/1 4/4/1 2/2/1 1/1/1
f 4/6/2 6/4/2 5/2/2 2/5/2
f 6/8/3 8/3/3 7/1/3 5/7/3
f 8/8/4 3/10/4 1/9/4 7/7/4
f 1/11/6 2/16/6 5/15/6 7/13/6

