# ProBuilder 4.5.2
# https://unity3d.com/unity/features/worldbuilding/probuilder
# 30.03.2022 13:04:18

mtllib ./Wall_angle(1).mtl
o Wall angle(1)

g Cube (2)(Clone)
v 0 0 0.75
v 1 0 0.75
v 0 1 0.75
v 1 1 0.75
v 1 0 1
v 1 1 1
v 0 0 1
v 0 1 1
v 0 1.03582 0.75
v 1 1.03582 0.75
v 0 1.03582 1
v 1 1.03582 1
v 0 0 -1.192093E-07
v 0 1 -1.192093E-07
v -0.2500004 0 0.8499997
v -0.25 0 -1.192093E-07
v -0.2500004 1 0.8499997
v -0.25 1 -1.192093E-07
v -0.2146451 0 0.9353551
v -0.2146451 1 0.9353551
v -0.1000005 0 0.9999999
v -0.1000005 1 0.9999999
v -0.1853558 0 0.9646445
v -0.1853558 1 0.9646445
v -0.1853557 1.03582 0.9646444
v -0.2146449 1.03582 0.9353552
v -0.2500005 1.03582 0.8499997
v -0.25 1.03582 -1.192093E-07
v 0 1.03582 -1.192093E-07
v -0.1000004 1.03582 1

vt 0 0
vt -1 0
vt 0 1
vt -1 1
vt -0.75 0
vt -0.75 1
vt 1 0
vt 1 1
vt 0.75 0
vt 0.75 1
vt 0 0.75
vt -1 0.75
vt 1 0.75
vt -0.819393 -0.02039033
vt 0.1806068 -0.02039081
vt 0.85 0
vt 0.85 1
vt -0.819393 0.2003401
vt 0.1806069 0.2003396
vt -0.819393 0.06886223
vt 0.1806068 0.06886169
vt -0.819393 0.1609892
vt 0.1806069 0.1609887
vt 0.180607 0.2703902
vt -0.8193929 0.2703907
vt 0.285356 0.1853551
vt 0.3146453 0.2146444
vt 0.4000007 0.2499999
vt 1.25 0.2499999
vt 1.25 -1.192093E-07
vt 0.2500005 -1.192093E-07
vt 0.2500005 0.09999979
vt -1.25 0.2499999
vt -0.4000006 0.2499999
vt -0.3146452 0.2146446
vt -0.2853559 0.1853552
vt -0.2500005 0.0999999
vt -0.2500005 -8.940697E-08
vt -1.25 -5.960464E-08
vt 0.7103558 0.6103548
vt 0.7396451 0.6396441
vt 0.6750004 0.4249994
vt 0.6750004 0.5249994
vt 0.8250005 0.6749994
vt 0.1429098 1.14291
vt 0.1429103 0.1429096
vt 0.1070903 1.14291
vt 0.1070908 0.1429096
vt 1.06791 1.06791
vt 1.06791 0.2179103
vt 1.03209 1.06791
vt 1.032091 0.2179103
vt 0.7679099 0.7679097
vt 0.7679101 0.5179097
vt 0.7320904 0.7679097
vt 0.7320905 0.5179097
vt 0 1.03582
vt -1 1.03582
vt 1 1.03582
vt 0.75 1.03582
vt -0.75 1.03582

vn 0 0 -1
vn 1 0 0
vn 0 0 1
vn -1 0 0
vn 0 1 0
vn 0 -1 0
vn -0.7793648 0 0.5989651
vn -0.8516223 0 0.4908238
vn -0.1275619 0 0.9746264
vn -0.2551233 0 0.9492527
vn -0.4908254 0 0.8516214
vn -0.5989663 0 0.7793639
vn -0.9238799 0 0.3826826

usemtl ProBuilderDefault
f 8/8/4 3/10/4 1/9/4 7/7/4
f 11/59/4 9/60/4 3/10/4 8/8/4

usemtl Front
f 15/34/6 16/33/6 13/39/6
f 15/34/6 13/39/6 7/38/6
f 19/35/6 15/34/6 7/38/6
f 19/35/6 7/38/6 21/37/6
f 21/37/6 23/36/6 19/35/6
f 21/20/9 22/21/10 23/22/11
f 22/21/10 24/23/12 23/22/11
f 23/22/11 24/23/12 19/18/7
f 24/23/12 20/19/8 19/18/7
f 17/24/13 15/25/13 20/19/8
f 15/25/13 19/18/7 20/19/8
f 8/15/3 21/20/9 7/14/3
f 8/15/3 22/21/10 21/20/9
f 4/4/1 2/2/1 1/1/1
f 1/1/1 3/3/1 4/4/1
f 6/4/2 5/2/2 2/5/2
f 2/5/2 4/6/2 6/4/2
f 8/3/3 7/1/3 5/7/3
f 5/7/3 6/8/3 8/3/3
f 2/13/6 5/8/6 7/3/6
f 7/3/6 1/11/6 2/13/6
f 8/4/2 7/2/2 13/1/2
f 13/1/2 14/3/2 8/4/2
f 18/3/4 16/1/4 15/16/4
f 15/16/4 17/17/4 18/3/4
f 14/10/1 13/9/1 16/7/1
f 16/7/1 18/8/1 14/10/1

usemtl Up
f 26/27/5 25/26/5 30/32/5
f 30/32/5 11/31/5 26/27/5
f 11/31/5 27/28/5 26/27/5
f 11/31/5 29/30/5 27/28/5
f 29/30/5 28/29/5 27/28/5
f 11/42/3 22/43/9 8/42/3
f 11/42/3 30/43/10 22/43/9
f 30/43/10 24/40/11 22/43/9
f 30/43/10 25/40/12 24/40/11
f 25/40/12 20/41/7 24/40/11
f 25/40/12 26/41/8 20/41/7
f 26/41/8 17/44/13 20/41/7
f 26/41/8 27/44/13 17/44/13
f 9/11/5 11/3/5 12/4/5
f 12/4/5 10/12/5 9/11/5
f 11/48/2 8/46/2 14/45/2
f 14/45/2 29/47/2 11/48/2
f 28/52/4 18/50/4 17/49/4
f 17/49/4 27/51/4 28/52/4
f 29/56/1 14/54/1 18/53/1
f 18/53/1 28/55/1 29/56/1
f 10/58/1 4/4/1 3/3/1
f 3/3/1 9/57/1 10/58/1
f 12/58/2 6/4/2 4/6/2
f 4/6/2 10/61/2 12/58/2
f 11/57/3 8/3/3 6/8/3
f 6/8/3 12/59/3 11/57/3

