# ProBuilder 4.5.2
# https://unity3d.com/unity/features/worldbuilding/probuilder
# 30.03.2022 13:04:07

mtllib ./Wall_angle.mtl
o Wall angle

g Cube (2)(Clone)(Clone)
v 0 0 0.75
v -1 0 0.75
v 0 1 0.75
v -1 1 0.75
v -1 0 1
v -1 1 1
v 0 0 1
v 0 1 1
v 0 1.03582 0.75
v -1 1.03582 0.75
v 0 1.03582 1
v -1 1.03582 1
v 0 0 -1.192093E-07
v 0 1 -1.192093E-07
v 0.2500004 0 0.8499997
v 0.25 0 -1.192093E-07
v 0.2500004 1 0.8499997
v 0.25 1 -1.192093E-07
v 0.2146451 0 0.9353551
v 0.2146451 1 0.9353551
v 0.1000005 0 0.9999999
v 0.1000005 1 0.9999999
v 0.1853558 0 0.9646445
v 0.1853558 1 0.9646445
v 0.1853557 1.03582 0.9646444
v 0.2146449 1.03582 0.9353552
v 0.2500005 1.03582 0.8499997
v 0.25 1.03582 -1.192093E-07
v 0 1.03582 -1.192093E-07
v 0.1000004 1.03582 1

vt 0 0
vt 1 0
vt 0 1
vt 1 1
vt 0.75 0
vt 0.75 1
vt -1 0
vt -1 1
vt -0.75 0
vt -0.75 1
vt 0 0.75
vt 1 0.75
vt -1 0.75
vt 0.9999999 0
vt 0.9999999 1
vt -1.430607 0.2703907
vt -0.4306074 0.2703902
vt 0.85 0
vt 0.85 1
vt 0.5 0
vt 0.5 1
vt -1.430607 0.0496603
vt -0.4306075 0.04965976
vt -1.430607 0.1811382
vt -0.4306074 0.1811377
vt -1.430607 0.08901122
vt -0.4306075 0.08901069
vt -0.4306076 -0.02039081
vt -1.430607 -0.0203903
vt 0.03535557 0.06464425
vt 0.06464481 0.035355
vt 0.1500003 -5.364418E-07
vt 0.9999999 0.2500004
vt -5.960464E-08 0.2499994
vt 0 0.1499995
vt -0.1500004 -4.768372E-07
vt -0.06464499 0.03535473
vt -0.03535557 0.06464404
vt -1 0.2500003
vt 0.7103558 0.6103548
vt 0.7396451 0.6396441
vt 0.6750004 0.4249995
vt 0.6750004 0.5249994
vt 0.8250005 0.6749994
vt 1.14291 0.1429096
vt 1.14291 1.14291
vt 1.107091 0.1429096
vt 1.10709 1.14291
vt 0.2179103 0.2179098
vt 0.2179099 1.06791
vt 0.1820908 0.2179099
vt 0.1820903 1.06791
vt 0.5179101 0.5179097
vt 0.5179099 0.7679097
vt 0.4820905 0.5179097
vt 0.4820904 0.7679097
vt 0 1.03582
vt 1 1.03582
vt -1 1.03582
vt -0.75 1.03582
vt 0.75 1.03582

vn 0 0 -1
vn -1 0 0
vn 0 0 1
vn 1 0 0
vn 0 1 0
vn 0 -1 0
vn 0.7793648 0 0.5989651
vn 0.8516223 0 0.4908238
vn 0.1275619 0 0.9746264
vn 0.2551233 0 0.9492527
vn 0.4908254 0 0.8516214
vn 0.5989663 0 0.7793639
vn 0.9238799 0 0.3826826

usemtl ProBuilderDefault
f 7/7/4 1/9/4 3/10/4 8/8/4
f 8/8/4 3/10/4 9/60/4 11/59/4

usemtl Front
f 19/37/6 23/38/6 21/35/6
f 21/35/6 7/34/6 19/37/6
f 7/34/6 15/36/6 19/37/6
f 7/34/6 13/39/6 15/36/6
f 13/39/6 16/7/6 15/36/6
f 21/24/9 22/25/10 8/17/3
f 7/16/3 21/24/9 8/17/3
f 20/23/8 19/22/7 15/29/13
f 20/23/8 15/29/13 17/28/13
f 19/22/7 20/23/8 24/27/12
f 19/22/7 24/27/12 23/26/11
f 23/26/11 24/27/12 22/25/10
f 23/26/11 22/25/10 21/24/9
f 2/2/1 4/4/1 3/3/1
f 3/3/1 1/1/1 2/2/1
f 5/2/2 6/4/2 4/6/2
f 4/6/2 2/5/2 5/2/2
f 7/1/3 8/3/3 6/8/3
f 6/8/3 5/7/3 7/1/3
f 5/8/6 2/13/6 1/11/6
f 1/11/6 7/3/6 5/8/6
f 7/14/2 8/15/2 14/3/2
f 14/3/2 13/1/2 7/14/2
f 16/1/4 18/3/4 17/19/4
f 17/19/4 15/18/4 16/1/4
f 13/5/1 14/6/1 18/21/1
f 18/21/1 16/20/1 13/5/1

usemtl Up
f 27/32/5 28/2/5 29/33/5
f 27/32/5 29/33/5 11/34/5
f 26/31/5 27/32/5 11/34/5
f 26/31/5 11/34/5 30/35/5
f 30/35/5 25/30/5 26/31/5
f 17/44/13 27/44/13 26/41/8
f 20/41/7 17/44/13 26/41/8
f 20/41/7 26/41/8 25/40/12
f 24/40/11 20/41/7 25/40/12
f 24/40/11 25/40/12 30/43/10
f 22/43/9 24/40/11 30/43/10
f 22/43/9 30/43/10 11/42/3
f 8/42/3 22/43/9 11/42/3
f 9/11/5 10/12/5 12/4/5
f 12/4/5 11/3/5 9/11/5
f 8/46/2 11/48/2 29/47/2
f 29/47/2 14/45/2 8/46/2
f 18/50/4 28/52/4 27/51/4
f 27/51/4 17/49/4 18/50/4
f 14/54/1 29/56/1 28/55/1
f 28/55/1 18/53/1 14/54/1
f 4/4/1 10/58/1 9/57/1
f 9/57/1 3/3/1 4/4/1
f 6/4/2 12/58/2 10/61/2
f 10/61/2 4/6/2 6/4/2
f 8/3/3 11/57/3 12/59/3
f 12/59/3 6/8/3 8/3/3

