# ProBuilder 4.5.2
# https://unity3d.com/unity/features/worldbuilding/probuilder
# 30.03.2022 12:42:19

mtllib ./Wallx2.mtl
o Wallx2

g Cube (4)
v 0 0 -0.75
v -1 0 -0.75
v 0 1 -0.75
v -1 1 -0.75
v -1 0 -1
v -1 1 -1
v 0 0 -1
v 0 1 -1
v 0.9999123 -0.01937201 -1
v 0.9999123 -0.01937201 -0.75
v 0.9999124 0.980628 -1
v 0.9999124 0.980628 -0.75
v 0 1.03582 -0.75
v -1 1.03582 -0.75
v 0 1.03582 -1
v -1 1.03582 -1
v 0.9999124 1.016448 -1
v 0.9999124 1.016448 -0.75

vt 0 0
vt -1 0
vt 0 1
vt -1 1
vt -0.75 0
vt -0.75 1
vt 1 0
vt 1 1
vt 1 -0.01937189
vt 0.75 -0.01937189
vt 1 0.9806281
vt 0.75 0.9806281
vt 0 -0.75
vt 1 -0.75
vt 0 -1
vt 1 -1
vt -1 -1
vt -1 -0.75
vt 0 1.03582
vt -1 1.03582
vt 1 1.016448
vt 0.75 1.016448
vt -0.75 1.03582
vt 1 -0.375
vt 0 -0.375
vt 1 1.03582
vt -0.9999124 0.980628
vt -0.9999123 -0.01937201
vt 0.9999123 -0.01937201
vt 0.9999124 0.980628
vt -0.9999124 1.016448
vt 0.9999124 1.016448
vt 0.02006388 -0.75
vt 0.02006388 -1
vt -0.9800361 -0.75
vt -0.9800361 -1

vn 0 0 1
vn -1 0 0
vn 0 0 -1
vn 1 -1.192093E-07 0
vn 0 1 0
vn 0 -1 0
vn 0 0 -0.005181347
vn -0.01937007 -0.9998124 0
vn 0.01937005 0.9998124 0

usemtl Up
f 15/19/7 15/19/7 15/19/7
f 15/19/7 15/19/7 15/19/7
f 15/19/7 15/19/7 15/19/7
f 15/19/7 15/19/7 15/19/7
f 15/19/7 15/19/7 15/19/7
f 15/19/7 15/19/7 15/19/7
f 15/19/7 15/19/7 15/19/7
f 15/19/7 15/19/7 15/19/7
f 15/19/7 15/19/7 15/19/7
f 15/19/7 15/19/7 15/19/7
f 15/19/7 15/19/7 15/19/7
f 15/19/7 15/19/7 15/19/7
f 15/19/7 15/19/7 15/19/7
f 15/19/7 15/19/7 15/19/7
f 15/19/7 15/19/7 15/19/7
f 15/19/7 15/19/7 15/19/7
f 15/19/7 15/19/7 15/19/7
f 15/19/7 15/19/7 15/19/7
f 15/19/7 15/19/7 15/19/7
f 15/19/7 15/19/7 15/19/7
f 15/19/7 15/19/7 15/19/7
f 15/19/7 15/19/7 15/19/7
f 15/19/7 15/19/7 15/19/7
f 15/19/7 15/19/7 15/19/7
f 15/19/7 15/19/7 15/19/7
f 15/19/7 15/19/7 15/19/7
f 15/19/7 15/19/7 15/19/7
f 15/19/7 15/19/7 15/19/7
f 15/19/7 15/19/7 15/19/7
f 15/19/7 15/19/7 15/19/7
f 15/19/7 15/19/7 15/19/7
f 15/19/7 15/19/7 15/19/7
f 15/19/7 15/19/7 15/19/7
f 15/19/7 15/19/7 15/19/7
f 15/19/7 15/19/7 15/19/7
f 15/19/7 15/19/7 15/19/7
f 15/19/7 15/19/7 15/19/7
f 15/19/7 15/19/7 15/19/7
f 15/19/7 15/19/7 15/19/7
f 15/19/7 15/19/7 15/19/7
f 15/19/7 15/19/7 15/19/7
f 15/19/7 15/19/7 15/19/7
f 15/19/7 15/19/7 15/19/7
f 15/19/7 15/19/7 15/19/7
f 15/19/7 15/19/7 15/19/7
f 15/19/7 15/19/7 15/19/7
f 15/19/7 15/19/7 15/19/7
f 15/19/7 15/19/7 15/19/7
f 15/19/7 15/19/7 15/19/7
f 15/19/7 15/19/7 15/19/7
f 15/19/7 15/19/7 15/19/7
f 15/19/7 15/19/7 15/19/7
f 15/19/7 15/19/7 15/19/7
f 15/19/7 15/19/7 15/19/7
f 15/19/7 15/19/7 15/19/7
f 15/19/7 15/19/7 15/19/7
f 15/19/7 15/19/7 15/19/7
f 15/19/7 15/19/7 15/19/7
f 15/19/7 15/19/7 15/19/7
f 15/19/7 15/19/7 15/19/7
f 15/19/7 15/19/7 15/19/7
f 15/19/7 15/19/7 15/19/7
f 15/19/7 15/19/7 15/19/7
f 15/19/7 15/19/7 15/19/7
f 16/16/5 14/14/5 13/13/5
f 13/13/5 15/15/5 16/16/5
f 14/20/1 4/4/1 3/3/1
f 3/3/1 13/19/1 14/20/1
f 18/22/4 12/12/4 11/11/4
f 11/11/4 17/21/4 18/22/4
f 16/20/2 6/4/2 4/6/2
f 4/6/2 14/23/2 16/20/2
f 15/19/7 8/25/3 6/24/3
f 6/24/3 16/26/3 15/19/7
f 11/27/3 8/3/3 15/19/3
f 15/19/3 17/31/3 11/27/3
f 18/32/1 13/19/1 3/3/1
f 3/3/1 12/30/1 18/32/1
f 17/36/9 15/34/9 13/33/9
f 13/33/9 18/35/9 17/36/9

usemtl Front
f 3/3/1 4/4/1 2/2/1 1/1/1
f 4/6/2 6/4/2 5/2/2 2/5/2
f 6/8/3 8/3/3 7/1/3 5/7/3
f 11/11/4 12/12/4 10/10/4 9/9/4
f 1/13/6 2/18/6 5/17/6 7/15/6
f 9/16/8 10/14/8 1/13/8 7/15/8
f 11/27/3 9/28/3 7/1/3 8/3/3
f 10/29/1 12/30/1 3/3/1 1/1/1

