# Blender 3.1.0
# www.blender.org
mtllib untitled.mtl
o base
v -0.020213 -0.000000 0.019857
v 0.020213 -0.000000 0.019857
v -0.020213 0.006533 0.019857
v 0.020213 0.006533 0.019857
v -0.020213 0.006533 -0.019857
v 0.020213 0.006533 -0.019857
v -0.020213 0.000000 -0.019857
v 0.020213 0.000000 -0.019857
vn -0.0000 -0.0000 0.0100
vn -0.0000 0.0100 -0.0000
vn -0.0000 -0.0100 -0.0000
vt 0.935014 0.926460
vt 0.963890 0.940526
vt 0.978138 0.940688
vt 0.935068 0.940526
vt 0.978138 0.954701
vt 0.938508 0.926514
vt 0.963835 0.940634
vt 0.938508 0.940526
vt 0.963835 0.954647
vt 0.978084 0.926460
vt 0.978084 0.940634
vt 0.963835 0.940472
vt 0.963835 0.926460
vt 0.978138 0.940526
vt 0.978138 0.926514
vt 0.963890 0.954701
s 1
usemtl Material.001
f 1/1/1 2/4/1 3/6/1
f 3/6/1 2/4/1 4/8/1
f 3/7/2 4/9/2 5/11/2
f 5/12/2 4/10/2 6/13/2
f 7/14/3 8/15/3 1/2/3
f 1/3/3 8/16/3 2/5/3
o frame
v 0.020017 0.000000 -0.019857
v 0.026812 0.000000 -0.024857
v 0.020017 0.000000 -0.024857
v -0.019412 0.000000 -0.019857
v -0.026207 0.000000 -0.024857
v -0.019412 0.000000 -0.024857
v -0.019412 0.031053 -0.024857
v 0.020017 0.031053 -0.024857
v -0.019412 0.031053 -0.019857
v 0.020017 0.031053 -0.019857
v 0.020017 0.021426 -0.019857
v 0.020017 0.020067 -0.019857
v 0.020696 0.020747 -0.019857
v 0.026132 0.020747 -0.024857
v 0.026812 0.020067 -0.024857
v 0.019544 0.020664 -0.024857
v 0.019536 0.020747 -0.024857
v 0.020017 0.021426 -0.024857
v 0.020696 0.020747 -0.024857
v 0.020017 0.020266 -0.024857
v -0.019412 0.021426 -0.019857
v -0.020091 0.020747 -0.019857
v -0.019412 0.020067 -0.019857
v -0.018933 0.020788 -0.024857
v -0.018931 0.020747 -0.024857
v -0.019412 0.020266 -0.024857
v -0.020091 0.020747 -0.024857
v -0.019412 0.021426 -0.024857
v -0.026207 0.020067 -0.024857
v -0.025527 0.020747 -0.024857
v 0.020560 0.020067 0.019857
v 0.020017 0.020067 0.019314
v 0.021240 0.020747 0.019178
v 0.020696 0.020747 0.018634
v 0.026132 0.020747 0.018634
v 0.025589 0.020747 0.019178
v 0.026812 0.020067 0.019314
v 0.026268 0.020067 0.019857
v 0.020017 -0.000000 0.019314
v 0.020560 -0.000000 0.019857
v 0.026268 -0.000000 0.019857
v 0.026812 -0.000000 0.019314
v -0.019412 0.020067 0.019314
v -0.019955 0.020067 0.019857
v -0.020091 0.020747 0.018634
v -0.020635 0.020747 0.019178
v -0.025663 0.020067 0.019857
v -0.026207 0.020067 0.019314
v -0.025527 0.020747 0.018634
v -0.024984 0.020747 0.019178
v -0.019955 -0.000000 0.019857
v -0.019412 -0.000000 0.019314
v -0.026207 -0.000000 0.019314
v -0.025663 -0.000000 0.019857
vn -0.0000 -0.0100 -0.0000
vn -0.0000 0.0100 -0.0000
vn -0.0000 -0.0000 -0.0100
vn -0.0000 -0.0000 0.0100
vn -0.0100 -0.0000 -0.0000
vn 0.0100 -0.0000 -0.0000
vn 0.0071 0.0071 -0.0000
vn -0.0071 0.0071 -0.0000
vn -0.0011 0.0099 -0.0000
vn -0.0016 0.0099 -0.0000
vn 0.0026 0.0097 -0.0000
vn 0.0015 0.0099 -0.0000
vn -0.0004 0.0090 0.0044
vn 0.0003 0.0086 0.0051
vn 0.0011 0.0099 -0.0000
vn 0.0016 0.0099 -0.0000
vn -0.0026 0.0097 -0.0000
vn -0.0015 0.0099 -0.0000
vn 0.0003 0.0088 0.0048
vn -0.0004 0.0088 0.0047
vn -0.0009 0.0002 0.0100
vn -0.0100 0.0002 0.0001
vn -0.0009 -0.0000 0.0100
vn -0.0100 -0.0000 0.0001
vn 0.0100 0.0002 0.0001
vn 0.0009 0.0002 0.0100
vn 0.0100 -0.0000 0.0001
vn 0.0009 -0.0000 0.0100
vn -0.0100 0.0003 -0.0000
vn 0.0100 0.0003 -0.0000
vt 0.927808 0.954647
vt 0.942273 0.940526
vt 0.924259 0.940526
vt 0.963727 0.903480
vt 0.949425 0.919372
vt 0.942111 0.940526
vt 0.935068 0.912177
vt 0.925898 0.937145
vt 0.931465 0.912177
vt 0.949479 0.901103
vt 0.934905 0.912339
vt 0.935014 0.940634
vt 0.938670 0.940526
vt 0.925898 0.940526
vt 0.963727 0.905089
vt 0.935014 0.919372
vt 0.925106 0.954647
vt 0.934905 0.912177
vt 0.927808 0.940634
vt 0.942219 0.926460
vt 0.925844 0.933547
vt 0.938616 0.926460
vt 0.949262 0.908741
vt 0.963727 0.926351
vt 0.934851 0.905197
vt 0.963673 0.900768
vt 0.931411 0.919210
vt 0.924205 0.936928
vt 0.942057 0.926460
vt 0.942111 0.940688
vt 0.963727 0.912339
vt 0.929447 0.940634
vt 0.931411 0.905197
vt 0.924205 0.933547
vt 0.949479 0.905089
vt 0.949316 0.919426
vt 0.925448 0.947776
vt 0.963835 0.903426
vt 0.925844 0.937091
vt 0.926007 0.940472
vt 0.963835 0.905197
vt 0.926457 0.936928
vt 0.978084 0.903426
vt 0.927700 0.940526
vt 0.935014 0.905035
vt 0.978138 0.905252
vt 0.926799 0.933601
vt 0.963835 0.905035
vt 0.949316 0.915883
vt 0.924205 0.937091
vt 0.949262 0.903426
vt 0.935014 0.915828
vt 0.931303 0.926514
vt 0.926061 0.940526
vt 0.935014 0.903426
vt 0.949425 0.905035
vt 0.929609 0.940472
vt 0.935068 0.919264
vt 0.931303 0.940526
vt 0.926007 0.905640
vt 0.925556 0.913008
vt 0.949316 0.940526
vt 0.949425 0.903426
vt 0.925844 0.912728
vt 0.963673 0.901211
vt 0.926745 0.940634
vt 0.949425 0.926297
vt 0.942219 0.954647
vt 0.926061 0.905975
vt 0.925556 0.912728
vt 0.931303 0.926351
vt 0.963890 0.905089
vt 0.926457 0.940634
vt 0.925898 0.936982
vt 0.949316 0.905089
vt 0.935014 0.901211
vt 0.934905 0.919264
vt 0.924259 0.936982
vt 0.935014 0.901491
vt 0.926457 0.926297
vt 0.963673 0.912285
vt 0.942057 0.940634
vt 0.925394 0.947722
vt 0.926061 0.926351
vt 0.935068 0.926351
vt 0.925106 0.912285
vt 0.925844 0.912285
vt 0.926007 0.926297
vt 0.978138 0.908633
vt 0.926511 0.936982
vt 0.926349 0.926351
vt 0.925394 0.912728
vt 0.925394 0.912285
vt 0.929663 0.940526
vt 0.927700 0.937145
vt 0.926799 0.936982
vt 0.927700 0.905694
vt 0.925106 0.912728
vt 0.963727 0.900822
vt 0.931465 0.919264
vt 0.925898 0.933601
vt 0.927700 0.905975
vt 0.925106 0.913008
vt 0.925106 0.912565
vt 0.925556 0.912565
vt 0.949316 0.903480
vt 0.929663 0.926351
vt 0.925106 0.947722
vt 0.934905 0.905252
vt 0.963727 0.901103
vt 0.925556 0.912285
vt 0.929609 0.926460
vt 0.949316 0.919264
vt 0.924205 0.940472
vt 0.927646 0.937091
vt 0.926061 0.905532
vt 0.925898 0.912782
vt 0.926007 0.905197
vt 0.929609 0.912285
vt 0.949262 0.912285
vt 0.925898 0.913062
vt 0.926799 0.954701
vt 0.949316 0.926514
vt 0.963673 0.903426
vt 0.931248 0.926460
vt 0.925610 0.913062
vt 0.949479 0.901545
vt 0.926511 0.954701
vt 0.949316 0.940688
vt 0.963727 0.919426
vt 0.926745 0.933547
vt 0.926295 0.912285
vt 0.963890 0.908633
vt 0.925898 0.912620
vt 0.925160 0.912620
vt 0.926007 0.912285
vt 0.926349 0.912339
vt 0.949316 0.926351
vt 0.925160 0.954701
vt 0.925448 0.912620
vt 0.931411 0.912122
vt 0.949425 0.900768
vt 0.925448 0.954701
vt 0.925160 0.913062
vt 0.925610 0.912620
vt 0.925448 0.912339
vt 0.949425 0.901048
vt 0.934851 0.912285
vt 0.925106 0.919210
vt 0.927700 0.905252
vt 0.931248 0.940634
vt 0.931248 0.912285
vt 0.925448 0.913062
vt 0.926007 0.937091
vt 0.926457 0.933547
vt 0.927700 0.905532
vt 0.925448 0.912782
vt 0.925898 0.912339
vt 0.931411 0.912285
vt 0.925844 0.915828
vt 0.963727 0.919264
vt 0.931303 0.940688
vt 0.949316 0.901265
vt 0.925106 0.915828
vt 0.929609 0.940634
vt 0.949316 0.901545
vt 0.927808 0.902097
vt 0.925394 0.913614
vt 0.925556 0.913451
vt 0.927195 0.903426
vt 0.927358 0.905035
vt 0.934905 0.926351
vt 0.927808 0.902377
vt 0.924656 0.954647
vt 0.925106 0.913614
vt 0.949425 0.901491
vt 0.942219 0.940634
vt 0.926349 0.905089
vt 0.925556 0.913171
vt 0.926907 0.903426
vt 0.978138 0.905089
vt 0.926799 0.903480
vt 0.926061 0.905089
vt 0.925106 0.913894
vt 0.925844 0.913171
vt 0.949425 0.901211
vt 0.926457 0.954647
vt 0.935068 0.905089
vt 0.931303 0.912339
vt 0.978138 0.903480
vt 0.926511 0.905089
vt 0.925556 0.913614
vt 0.949262 0.901211
vt 0.926457 0.912285
vt 0.926799 0.905089
vt 0.926349 0.903480
vt 0.925898 0.913668
vt 0.926907 0.905035
vt 0.927358 0.903426
vt 0.925610 0.913948
vt 0.924998 0.947776
vt 0.934905 0.902151
vt 0.926745 0.912285
vt 0.949425 0.912285
vt 0.925898 0.913948
vt 0.934905 0.902431
vt 0.927646 0.903426
vt 0.931465 0.926351
vt 0.924656 0.947722
vt 0.963673 0.919372
vt 0.949262 0.940634
vt 0.949316 0.912177
vt 0.926349 0.933601
vt 0.927412 0.936982
vt 0.934851 0.902097
vt 0.924944 0.947722
vt 0.934905 0.919426
vt 0.927700 0.936982
vt 0.924710 0.954701
vt 0.927862 0.902431
vt 0.931411 0.919372
vt 0.926349 0.936982
vt 0.927700 0.933601
vt 0.924998 0.954701
vt 0.949425 0.919210
vt 0.935014 0.954647
vt 0.942111 0.926514
vt 0.949316 0.908795
vt 0.926061 0.936982
vt 0.925106 0.940634
vt 0.925160 0.913948
vt 0.925898 0.913225
vt 0.963727 0.901265
vt 0.949316 0.954701
vt 0.925394 0.940634
vt 0.934851 0.901654
vt 0.925448 0.913948
vt 0.927412 0.905089
vt 0.931303 0.908795
vt 0.935014 0.912285
vt 0.926457 0.905035
vt 0.926295 0.903426
vt 0.925898 0.913505
vt 0.963727 0.901545
vt 0.926799 0.940688
vt 0.926007 0.903426
vt 0.925448 0.913668
vt 0.925610 0.913505
vt 0.927700 0.905089
vt 0.927249 0.903480
vt 0.927862 0.901988
vt 0.925160 0.947613
vt 0.925448 0.913225
vt 0.927700 0.903480
vt 0.926961 0.905089
vt 0.931303 0.912177
vt 0.925448 0.947613
vt 0.925106 0.913171
vt 0.935068 0.954701
vt 0.949479 0.919264
vt 0.929663 0.954701
vt 0.929609 0.954647
vt 0.929609 0.926297
vt 0.935014 0.915666
vt 0.926745 0.903426
vt 0.925160 0.913505
vt 0.931303 0.954701
vt 0.935068 0.901545
vt 0.926457 0.903426
vt 0.926007 0.905035
vt 0.925448 0.913505
vt 0.927249 0.905089
vt 0.927358 0.933547
vt 0.927808 0.901654
vt 0.924205 0.908741
vt 0.935014 0.908741
vt 0.926007 0.936928
vt 0.927646 0.933547
vt 0.925106 0.947559
vt 0.927808 0.901934
vt 0.942273 0.954701
vt 0.949479 0.926351
vt 0.938616 0.940472
vt 0.935014 0.912122
vt 0.926295 0.933547
vt 0.934905 0.901708
vt 0.925448 0.940688
vt 0.942111 0.954701
vt 0.926007 0.933547
vt 0.927358 0.936928
vt 0.934905 0.901988
vt 0.924259 0.912177
s 1
usemtl Material.001
f 14/48/4 9/17/4 12/35/4
f 16/59/5 15/54/5 17/64/5
f 14/49/6 13/41/6 34/157/6
f 34/158/6 13/42/6 35/163/6
f 13/43/6 37/175/6 35/164/6
f 38/180/6 35/165/6 37/176/6
f 12/36/7 9/18/7 31/139/7
f 9/18/7 20/78/7 31/139/7
f 20/79/7 19/72/7 31/140/7
f 18/68/7 17/65/7 19/74/7
f 31/141/7 19/73/7 29/128/7
f 19/74/7 17/65/7 29/129/7
f 17/66/8 15/55/8 29/130/8
f 29/131/8 15/56/8 36/170/8
f 19/75/9 26/110/9 18/69/9
f 18/70/9 26/111/9 16/60/9
f 16/62/6 32/149/6 15/57/6
f 32/147/6 36/171/6 15/58/6
f 16/61/5 17/67/5 18/71/5
f 14/50/4 12/37/4 13/44/4
f 10/24/4 9/19/4 11/30/4
f 11/31/4 9/20/4 14/51/4
f 14/52/6 24/101/6 11/32/6
f 24/99/6 28/124/6 11/33/6
f 11/34/6 28/125/6 10/25/6
f 28/126/6 27/115/6 10/26/6
f 10/27/6 27/116/6 23/93/6
f 27/117/6 22/90/6 23/94/6
f 33/152/6 32/148/6 25/104/6
f 32/149/6 16/62/6 25/105/6
f 26/112/6 25/106/6 16/63/6
f 25/107/6 24/100/6 33/153/6
f 24/101/6 14/52/6 33/154/6
f 34/159/6 33/155/6 14/53/6
f 19/76/10 21/85/10 26/113/10
f 26/113/10 21/85/10 27/118/10
f 30/134/11 29/132/11 35/166/11
f 35/166/11 29/132/11 36/172/11
f 38/181/12 57/278/13 35/167/5
f 35/168/5 57/279/13 30/135/14
f 30/136/14 57/280/13 53/256/15
f 57/281/13 58/285/16 53/257/15
f 58/286/16 54/262/17 53/258/15
f 19/77/7 20/80/7 21/86/7
f 26/114/6 27/119/6 25/108/6
f 25/109/6 27/120/6 24/102/6
f 24/103/6 27/121/6 28/127/6
f 29/133/7 30/137/7 31/142/7
f 35/169/6 36/173/6 34/160/6
f 36/174/6 32/150/6 34/161/6
f 32/151/6 33/156/6 34/162/6
f 22/91/18 27/122/5 43/204/19
f 27/123/5 21/87/20 43/205/19
f 21/88/20 42/197/21 43/206/19
f 43/207/19 42/198/21 44/211/22
f 44/212/22 42/199/21 41/194/23
f 39/183/24 40/189/25 48/231/26
f 48/232/26 40/190/25 47/225/27
f 40/191/25 39/184/24 42/200/21
f 42/201/21 39/185/24 41/195/23
f 43/208/19 44/213/22 45/216/28
f 45/216/28 44/213/22 46/221/29
f 50/240/30 45/217/28 49/235/31
f 49/236/31 45/218/28 46/222/29
f 40/192/25 42/202/21 20/81/32
f 20/82/32 42/203/21 21/89/20
f 41/196/23 39/186/24 44/214/22
f 44/215/22 39/187/24 46/223/29
f 22/92/18 43/209/19 23/95/33
f 23/96/33 43/210/19 45/219/28
f 9/21/8 47/226/27 20/83/32
f 20/84/32 47/227/27 40/193/25
f 49/237/31 46/224/29 48/233/26
f 48/233/26 46/224/29 39/188/24
f 45/220/28 50/241/30 23/97/33
f 23/98/33 50/242/30 10/28/9
f 13/45/4 12/38/4 61/299/4
f 12/39/4 60/292/4 61/300/4
f 61/301/4 60/293/4 62/305/4
f 60/294/4 59/289/4 62/306/4
f 51/246/28 52/251/29 60/295/30
f 60/296/30 52/252/29 59/290/31
f 52/253/29 51/247/28 54/263/17
f 54/264/17 51/248/28 53/259/15
f 62/307/26 55/267/24 61/302/27
f 61/303/27 55/268/24 56/273/25
f 56/274/25 55/269/24 57/282/13
f 57/282/13 55/269/24 58/287/16
f 52/254/29 54/265/17 55/270/24
f 55/271/24 54/266/17 58/288/16
f 51/249/28 31/143/33 53/260/15
f 53/261/15 31/144/33 30/138/14
f 59/291/31 52/255/29 62/308/26
f 62/308/26 52/255/29 55/272/24
f 51/250/28 60/297/30 31/145/33
f 31/146/33 60/298/30 12/40/9
f 61/304/27 56/275/25 13/46/8
f 13/47/8 56/276/25 37/177/32
f 56/277/25 57/283/13 37/178/32
f 37/179/32 57/284/13 38/182/12
f 10/29/4 50/243/4 9/22/4
f 9/23/4 50/244/4 47/228/4
f 50/245/4 49/238/4 47/229/4
f 49/239/4 48/234/4 47/230/4
o seat_2
v -0.019296 0.006607 -0.019597
v 0.019899 0.006607 -0.019597
v -0.019296 0.011992 -0.019597
v -0.017950 0.013339 -0.019597
v 0.018553 0.013339 -0.019597
v 0.019899 0.011992 -0.019597
v -0.018383 0.011992 0.019597
v -0.019296 0.011992 0.018685
v -0.017037 0.013339 0.018251
v -0.017950 0.013339 0.017339
v 0.018553 0.013339 0.017339
v 0.017641 0.013339 0.018251
v 0.019899 0.011992 0.018685
v 0.018987 0.011992 0.019597
v 0.018987 0.006607 0.019597
v 0.019899 0.006607 0.018685
v -0.019296 0.006607 0.018685
v -0.018383 0.006607 0.019597
vn 0.0004 0.0100 -0.0000
vn -0.0004 0.0100 -0.0000
vn 0.0009 0.0100 -0.0000
vn -0.0000 0.0100 0.0009
vn -0.0005 0.0100 -0.0000
vn -0.0001 0.0087 0.0050
vn -0.0003 0.0013 0.0099
vn -0.0099 0.0014 0.0002
vn -0.0002 -0.0000 0.0100
vn -0.0100 -0.0000 0.0002
vn 0.0099 0.0014 0.0002
vn 0.0003 0.0014 0.0099
vn 0.0100 -0.0000 0.0002
vn 0.0002 -0.0000 0.0100
vn -0.0071 0.0071 -0.0000
vn 0.0071 0.0071 -0.0000
vn 0.0100 -0.0000 -0.0000
vn -0.0100 -0.0000 -0.0000
vt 0.963835 0.908741
vt 0.934905 0.954701
vt 0.978084 0.900768
vt 0.929447 0.926460
vt 0.963890 0.912177
vt 0.926799 0.912339
vt 0.963727 0.940688
vt 0.928709 0.926460
vt 0.949425 0.940634
vt 0.929501 0.940526
vt 0.926907 0.933385
vt 0.928763 0.940526
vt 0.931465 0.954701
vt 0.926907 0.933547
vt 0.925898 0.914997
vt 0.927862 0.940526
vt 0.963890 0.901545
vt 0.949316 0.915720
vt 0.927249 0.933601
vt 0.925556 0.914943
vt 0.963835 0.901491
vt 0.978138 0.912177
vt 0.927808 0.926460
vt 0.925898 0.915720
vt 0.928600 0.940526
vt 0.963727 0.954701
vt 0.928546 0.926460
vt 0.925610 0.915720
vt 0.963835 0.900768
vt 0.928709 0.940472
vt 0.949425 0.954647
vt 0.926799 0.926351
vt 0.925106 0.914943
vt 0.926907 0.919372
vt 0.929501 0.926514
vt 0.926511 0.926351
vt 0.949479 0.954701
vt 0.927808 0.940472
vt 0.925448 0.914997
vt 0.928600 0.926514
vt 0.978138 0.901545
vt 0.925160 0.915720
vt 0.927808 0.905640
vt 0.927646 0.919372
vt 0.931411 0.940634
vt 0.925448 0.915720
vt 0.927862 0.905975
vt 0.978138 0.900822
vt 0.935068 0.915720
vt 0.949425 0.912122
vt 0.931303 0.905975
vt 0.949425 0.908741
vt 0.931303 0.905694
vt 0.934905 0.940688
vt 0.927249 0.936982
vt 0.978138 0.908795
vt 0.926961 0.936982
vt 0.949316 0.912339
vt 0.963673 0.908741
s 1
usemtl Material.001
f 67/317/34 66/315/35 73/339/36
f 73/340/36 66/314/35 74/344/37
f 66/315/35 72/334/38 74/345/37
f 72/335/38 71/331/39 74/346/37
f 69/322/40 70/327/41 80/365/42
f 80/365/42 70/327/41 79/363/43
f 70/328/41 69/323/40 72/336/38
f 72/336/38 69/323/40 71/332/39
f 73/341/36 74/347/37 75/350/44
f 75/350/44 74/347/37 76/354/45
f 75/351/44 76/355/45 78/361/46
f 78/361/46 76/355/45 77/359/47
f 70/329/41 72/337/38 65/311/48
f 65/312/48 72/338/38 66/316/35
f 71/333/39 69/324/40 74/348/37
f 74/349/37 69/325/40 76/356/45
f 75/352/44 68/319/49 73/342/36
f 73/343/36 68/320/49 67/318/34
f 69/326/40 80/366/42 76/357/45
f 76/358/45 80/367/42 77/360/47
f 75/353/44 78/362/46 68/321/50
f 68/321/50 78/362/46 64/310/50
f 63/309/51 79/364/43 65/313/51
f 65/313/51 79/364/43 70/330/41
o rest_2
v -0.019296 0.035885 -0.021100
v 0.019899 0.035885 -0.021100
v -0.019296 0.012034 -0.015254
v 0.019899 0.012034 -0.015254
v -0.019296 0.037167 -0.015869
v -0.019296 0.013316 -0.010024
v -0.017950 0.013636 -0.008716
v 0.019899 0.037167 -0.015869
v 0.018553 0.013636 -0.008716
v 0.019899 0.013316 -0.010024
v -0.017950 0.036834 -0.014402
v 0.018553 0.036834 -0.014402
vn -0.0000 -0.0024 -0.0097
vn -0.0000 -0.0097 0.0024
vn 0.0004 0.0031 0.0095
vn -0.0004 0.0032 0.0095
vn 0.0004 0.0024 0.0097
vn -0.0004 0.0024 0.0097
vn 0.0055 0.0083 -0.0006
vn 0.0098 0.0005 0.0019
vn 0.0053 0.0082 -0.0020
vn 0.0100 -0.0000 -0.0000
vn -0.0098 0.0005 0.0019
vn -0.0055 0.0084 -0.0006
vn -0.0100 -0.0000 -0.0000
vn -0.0053 0.0082 -0.0020
vt 0.949425 0.926460
vt 0.934905 0.940526
vt 0.935068 0.908633
vt 0.949479 0.940526
vt 0.949479 0.908633
vt 0.949316 0.908633
vt 0.963727 0.926514
vt 0.929501 0.954701
vt 0.934905 0.926514
vt 0.963727 0.940526
vt 0.929501 0.940688
vt 0.949262 0.901654
vt 0.963727 0.908795
vt 0.925898 0.915883
vt 0.963727 0.908633
vt 0.931465 0.940526
vt 0.935014 0.905197
vt 0.949316 0.901708
vt 0.927646 0.940634
vt 0.927862 0.954701
vt 0.935014 0.902377
vt 0.931411 0.926460
vt 0.926907 0.954647
vt 0.935014 0.903263
vt 0.935014 0.901654
vt 0.949479 0.912177
vt 0.978138 0.926351
vt 0.935014 0.902540
vt 0.949425 0.905197
vt 0.949316 0.905252
vt 0.926961 0.933439
vt 0.935068 0.902431
vt 0.926961 0.954701
vt 0.963727 0.912177
vt 0.925160 0.919264
vt 0.978138 0.912339
vt 0.949316 0.903317
vt 0.925898 0.919264
vt 0.963727 0.905252
vt 0.927700 0.940688
vt 0.949316 0.902594
vt 0.963890 0.926351
vt 0.927700 0.919426
vt 0.949316 0.902431
vt 0.926907 0.940634
vt 0.949262 0.902540
vt 0.963835 0.912285
vt 0.927700 0.933439
vt 0.927700 0.954701
vt 0.935068 0.903317
s 1
usemtl Material.001
f 81/368/52 82/371/52 83/374/52
f 83/374/52 82/371/52 84/377/52
f 83/375/53 84/378/53 86/387/53
f 86/388/53 84/379/53 87/392/53
f 87/393/53 84/380/53 89/401/53
f 84/381/53 90/405/53 89/402/53
f 92/414/54 91/409/55 89/403/56
f 89/403/56 91/409/55 87/394/57
f 88/396/58 90/406/59 82/372/60
f 82/372/60 90/406/59 84/382/61
f 86/389/62 85/383/63 83/376/64
f 83/376/64 85/383/63 81/369/65
f 85/384/63 88/397/58 81/370/65
f 81/370/65 88/397/58 82/373/60
f 92/415/54 88/398/58 91/410/55
f 91/411/55 88/399/58 85/385/63
f 85/386/63 86/390/62 91/412/55
f 91/413/55 86/391/62 87/395/57
f 88/400/58 92/416/54 90/407/59
f 90/408/59 92/417/54 89/404/56
o polySurface1
v 0.020382 -0.010652 0.014843
v 0.021781 -0.010652 0.014843
v 0.019306 -0.000000 0.015919
v 0.022857 -0.000000 0.015919
v 0.019306 -0.000000 0.012367
v 0.022857 -0.000000 0.012367
v 0.020382 -0.010652 0.013443
v 0.021781 -0.010652 0.013443
vn -0.0000 -0.0010 0.0099
vn -0.0000 -0.0010 -0.0099
vn -0.0000 -0.0100 -0.0000
vn 0.0099 -0.0010 -0.0000
vn -0.0099 -0.0010 -0.0000
vt 0.925106 0.919372
vt 0.925844 0.905197
vt 0.924205 0.914780
vt 0.925844 0.926460
vt 0.927808 0.926297
vt 0.925844 0.919372
vt 0.963673 0.901654
vt 0.924205 0.914057
vt 0.925556 0.940634
vt 0.925106 0.926297
vt 0.956630 0.903263
vt 0.927808 0.919372
vt 0.956630 0.901654
vt 0.925556 0.947559
vt 0.971041 0.903263
vt 0.927808 0.912285
vt 0.925106 0.933385
vt 0.929447 0.919372
vt 0.929447 0.912285
vt 0.934851 0.902540
vt 0.971041 0.901654
vt 0.927808 0.919210
vt 0.927808 0.903263
vt 0.925106 0.905197
vt 0.925106 0.926460
vt 0.927808 0.902540
vt 0.925106 0.905921
vt 0.924944 0.914057
vt 0.926295 0.940634
vt 0.978084 0.901654
s 1
usemtl Material.001
f 93/418/66 94/423/66 95/427/66
f 95/428/66 94/424/66 96/430/66
f 97/433/67 98/436/67 99/439/67
f 99/440/67 98/437/67 100/443/67
f 99/441/68 100/444/68 93/419/68
f 93/420/68 100/445/68 94/425/68
f 94/426/69 100/446/69 96/431/69
f 96/432/69 100/447/69 98/438/69
f 99/442/70 93/421/70 97/434/70
f 97/435/70 93/422/70 95/429/70
o polySurface2
v -0.019651 -0.010652 0.014843
v -0.021050 -0.010652 0.014843
v -0.018575 -0.000000 0.015919
v -0.022126 -0.000000 0.015919
v -0.018575 -0.000000 0.012367
v -0.022126 -0.000000 0.012367
v -0.019651 -0.010652 0.013443
v -0.021050 -0.010652 0.013443
vn -0.0000 -0.0010 0.0099
vn -0.0000 -0.0010 -0.0099
vn -0.0000 -0.0100 -0.0000
vn -0.0099 -0.0010 -0.0000
vn 0.0099 -0.0010 -0.0000
vt 0.925898 0.926351
vt 0.925844 0.914057
vt 0.924205 0.915666
vt 0.924205 0.906807
vt 0.929501 0.919426
vt 0.925160 0.926351
vt 0.956684 0.903317
vt 0.924205 0.914943
vt 0.926349 0.947613
vt 0.925898 0.919426
vt 0.963727 0.901708
vt 0.929501 0.926351
vt 0.963727 0.903317
vt 0.926349 0.940688
vt 0.978138 0.901708
vt 0.927808 0.903426
vt 0.931248 0.906083
vt 0.927862 0.926351
vt 0.927808 0.905035
vt 0.925556 0.954647
vt 0.978138 0.903317
vt 0.934851 0.903426
vt 0.926295 0.947722
vt 0.925106 0.914057
vt 0.924205 0.906083
vt 0.925556 0.947722
vt 0.925106 0.914780
vt 0.924944 0.914943
vt 0.925610 0.947613
vt 0.971095 0.903317
s 1
usemtl Material.001
f 101/448/71 103/457/71 102/453/71
f 102/454/71 103/458/71 104/460/71
f 105/463/72 107/469/72 106/466/72
f 106/467/72 107/470/72 108/473/72
f 107/471/73 101/449/73 108/474/73
f 108/475/73 101/450/73 102/455/73
f 102/456/74 104/461/74 108/476/74
f 108/477/74 104/462/74 106/468/74
f 107/472/75 105/464/75 101/451/75
f 101/452/75 105/465/75 103/459/75
o polySurface3
v 0.020382 -0.010652 -0.019277
v 0.021781 -0.010652 -0.019277
v 0.019306 0.000000 -0.020354
v 0.022857 0.000000 -0.020354
v 0.019306 0.000000 -0.016802
v 0.022857 0.000000 -0.016802
v 0.020382 -0.010652 -0.017878
v 0.021781 -0.010652 -0.017878
vn -0.0000 -0.0010 -0.0099
vn -0.0000 -0.0010 0.0099
vn -0.0000 -0.0100 -0.0000
vn 0.0099 -0.0010 -0.0000
vn -0.0099 -0.0010 -0.0000
vt 0.926007 0.926460
vt 0.924259 0.915720
vt 0.925898 0.914111
vt 0.931303 0.906137
vt 0.970879 0.901654
vt 0.926745 0.926460
vt 0.931248 0.906969
vt 0.925898 0.914834
vt 0.926907 0.912285
vt 0.926007 0.933385
vt 0.924205 0.908579
vt 0.963835 0.901654
vt 0.924205 0.906969
vt 0.926907 0.919210
vt 0.949425 0.903263
vt 0.934905 0.905089
vt 0.924259 0.906861
vt 0.963835 0.903263
vt 0.934905 0.903480
vt 0.926349 0.947776
vt 0.949425 0.901654
vt 0.927862 0.905089
vt 0.925610 0.954701
vt 0.924998 0.915720
vt 0.931303 0.906861
vt 0.926349 0.954701
vt 0.924998 0.914997
vt 0.925160 0.914834
vt 0.927646 0.912285
vt 0.956468 0.901654
s 1
usemtl Material.001
f 109/478/76 111/487/76 110/483/76
f 110/484/76 111/488/76 112/490/76
f 113/493/77 115/499/77 114/496/77
f 114/497/77 115/500/77 116/503/77
f 115/501/78 109/479/78 116/504/78
f 116/505/78 109/480/78 110/485/78
f 110/486/79 112/491/79 116/506/79
f 116/507/79 112/492/79 114/498/79
f 115/502/80 113/494/80 109/481/80
f 109/482/80 113/495/80 111/489/80
o polySurface4
v -0.019651 -0.010652 -0.019277
v -0.021050 -0.010652 -0.019277
v -0.018575 0.000000 -0.020354
v -0.022126 0.000000 -0.020354
v -0.018575 0.000000 -0.016802
v -0.022126 0.000000 -0.016802
v -0.019651 -0.010652 -0.017878
v -0.021050 -0.010652 -0.017878
v -0.021588 -0.005326 -0.019816
vn -0.0000 -0.0010 -0.0099
vn -0.0000 -0.0010 0.0099
vn -0.0000 -0.0100 -0.0000
vn -0.0099 -0.0010 -0.0000
vn 0.0099 -0.0010 -0.0000
vt 0.926799 0.933439
vt 0.924259 0.914834
vt 0.925898 0.905252
vt 0.925160 0.933439
vt 0.963890 0.903317
vt 0.926061 0.933439
vt 0.924259 0.908633
vt 0.925898 0.905975
vt 0.927700 0.919264
vt 0.926799 0.926514
vt 0.931303 0.907023
vt 0.970933 0.903317
vt 0.931303 0.908633
vt 0.927700 0.912339
vt 0.956522 0.901708
vt 0.929501 0.919264
vt 0.925898 0.926514
vt 0.970933 0.901708
vt 0.927862 0.919264
vt 0.927862 0.903317
vt 0.956522 0.903317
vt 0.929501 0.912339
vt 0.934905 0.902594
vt 0.924998 0.914834
vt 0.925898 0.933439
vt 0.934905 0.903317
vt 0.924998 0.914111
vt 0.925160 0.905975
vt 0.926961 0.919264
vt 0.949479 0.903317
vt 0.927781 0.908633
vt 0.927700 0.915801
s 1
usemtl Material.001
f 117/508/81 118/513/81 119/517/81
f 119/518/81 118/514/81 125/538/81 120/520/81
f 121/523/82 122/526/82 123/529/82
f 123/530/82 122/527/82 124/533/82
f 123/531/83 124/534/83 117/509/83
f 117/510/83 124/535/83 118/515/83
f 118/516/84 124/536/84 120/521/84 125/539/84
f 120/522/84 124/537/84 122/528/84
f 123/532/85 117/511/85 121/524/85
f 121/525/85 117/512/85 119/519/85
