# Blender 3.1.0
# www.blender.org
mtllib closetA.mtl
o Object003
v -1.161230 0.000000 0.626486
v -0.000000 0.000000 0.626486
v -1.161230 -0.000000 0.000000
v -0.000000 -0.000000 0.000000
v -1.161230 1.987252 0.626486
v -0.000000 1.987252 0.626486
v -1.161230 1.987252 -0.000000
v -0.000000 1.987252 -0.000000
v -1.137790 0.023440 0.626486
v -0.023440 0.023440 0.626486
v -0.023440 1.963812 0.626486
v -1.137790 1.963812 0.626486
v -1.137790 0.023440 0.596309
v -0.023440 0.023440 0.596309
v -0.023440 1.963812 0.596309
v -1.137790 1.963812 0.596309
v -0.023440 0.508533 0.596309
v -0.023440 0.993626 0.596309
v -0.023440 1.478719 0.596309
v -1.137790 1.478719 0.596309
v -1.137790 0.993626 0.596309
v -1.137790 0.508533 0.596309
v -0.035466 0.520559 0.596309
v -0.035466 0.981600 0.596309
v -1.125763 0.981600 0.596309
v -1.125763 0.520559 0.596309
v -0.035466 1.490746 0.596309
v -0.035466 1.951786 0.596309
v -1.125763 1.951786 0.596309
v -1.125763 1.490746 0.596309
v -0.035466 1.005652 0.596309
v -0.035466 1.466693 0.596309
v -1.125763 1.466693 0.596309
v -1.125763 1.005652 0.596309
v -1.125763 0.496507 0.596309
v -1.125763 0.035466 0.596309
v -0.035466 0.035466 0.596309
v -0.035466 0.496507 0.596309
v -0.035466 0.520559 0.042137
v -0.035466 0.981600 0.042137
v -1.125763 0.981600 0.042137
v -1.125763 0.520559 0.042137
v -0.035466 1.490746 0.042137
v -0.035466 1.951786 0.042137
v -1.125763 1.951786 0.042137
v -1.125763 1.490746 0.042137
v -0.035466 1.005652 0.042137
v -0.035466 1.466693 0.042137
v -1.125763 1.466693 0.042137
v -1.125763 1.005652 0.042137
v -1.125763 0.496507 0.042137
v -1.125763 0.035466 0.042137
v -0.035466 0.035466 0.042137
v -0.035466 0.496507 0.042137
vn -0.0000 -0.0254 -0.0000
vn -0.0000 0.0254 -0.0000
vn -0.0000 -0.0000 0.0254
vn 0.0254 -0.0000 -0.0000
vn -0.0000 -0.0000 -0.0254
vn -0.0254 -0.0000 -0.0000
vt 0.342568 0.891037
vt 0.314196 0.891037
vt 0.328451 0.958612
vt 0.353259 0.919548
vt 0.342568 0.919409
vt 0.314056 0.933665
vt 0.342568 0.958612
vt 0.353259 0.919409
vt 0.328451 0.891037
vt 0.285684 0.891037
vt 0.328312 0.891037
vt 0.328451 0.919409
vt 0.314056 0.919548
vt 0.314056 0.891037
vt 0.285684 0.947920
vt 0.314196 0.919409
vt 0.342568 0.960394
vt 0.353259 0.947920
vt 0.314056 0.947920
vt 0.285684 0.933665
vt 0.353259 0.891037
vt 0.328451 0.960394
vt 0.285684 0.933804
vt 0.285684 0.919409
vt 0.328312 0.919409
vt 0.314056 0.933804
vt 0.285684 0.919548
vt 0.314056 0.919409
vt 0.328451 0.956969
vt 0.351616 0.919548
vt 0.299940 0.960394
vt 0.351477 0.947920
vt 0.342568 0.956969
vt 0.351616 0.919409
vt 0.314056 0.960394
vt 0.351477 0.891037
vt 0.351616 0.891037
vt 0.328451 0.958751
vt 0.351477 0.919409
vt 0.299940 0.958612
vt 0.342568 0.958751
vt 0.351616 0.947920
vt 0.314056 0.958612
vt 0.351477 0.919548
vt 0.299940 0.958751
vt 0.349835 0.947920
vt 0.344350 0.948059
vt 0.299940 0.956830
vt 0.314056 0.958751
vt 0.349835 0.891037
vt 0.314056 0.956830
vt 0.355041 0.905154
vt 0.349835 0.919409
vt 0.299940 0.956969
vt 0.351477 0.948059
vt 0.314196 0.958612
vt 0.314056 0.956969
vt 0.349835 0.919548
vt 0.328312 0.958612
vt 0.349695 0.955048
vt 0.349835 0.898130
vt 0.355041 0.898026
vt 0.299801 0.960394
vt 0.355041 0.898165
vt 0.328451 0.956830
vt 0.349835 0.905223
vt 0.355041 0.891037
vt 0.314196 0.960394
vt 0.347913 0.955048
vt 0.299801 0.956830
vt 0.349835 0.912316
vt 0.351477 0.955048
vt 0.299801 0.958612
vt 0.347913 0.948059
vt 0.314196 0.956830
vt 0.349835 0.926641
vt 0.349695 0.948059
vt 0.285684 0.958612
vt 0.328312 0.956830
vt 0.346132 0.955048
vt 0.349835 0.933734
vt 0.328312 0.960394
vt 0.353259 0.955048
vt 0.346132 0.948059
vt 0.285684 0.956830
vt 0.349835 0.940827
vt 0.353259 0.948059
vt 0.285684 0.960394
vt 0.344350 0.955048
vt 0.342568 0.956830
vt 0.353398 0.898026
vt 0.299801 0.958751
vt 0.321184 0.948059
vt 0.342568 0.940793
vt 0.353398 0.891037
vt 0.314196 0.958751
vt 0.314196 0.948059
vt 0.349695 0.905154
vt 0.328312 0.958751
vt 0.351616 0.955048
vt 0.349695 0.891037
vt 0.335440 0.948059
vt 0.351616 0.948059
vt 0.285684 0.958751
vt 0.328451 0.948059
vt 0.328451 0.940793
vt 0.349835 0.955048
vt 0.299801 0.956969
vt 0.349695 0.926676
vt 0.328312 0.947920
vt 0.349835 0.948059
vt 0.314196 0.956969
vt 0.342707 0.926676
vt 0.342568 0.933665
vt 0.328312 0.956969
vt 0.348053 0.955048
vt 0.342568 0.919548
vt 0.349695 0.919548
vt 0.348053 0.948059
vt 0.285684 0.956969
vt 0.342707 0.919548
vt 0.314196 0.947920
vt 0.346271 0.955048
vt 0.299801 0.955187
vt 0.349695 0.940932
vt 0.328312 0.940793
vt 0.346271 0.948059
vt 0.314196 0.955187
vt 0.342707 0.940932
vt 0.335440 0.933665
vt 0.328312 0.955187
vt 0.344489 0.955048
vt 0.335440 0.919548
vt 0.342568 0.948059
vt 0.344489 0.948059
vt 0.285684 0.955187
vt 0.335579 0.948059
vt 0.314196 0.940793
vt 0.342707 0.955048
vt 0.342568 0.955187
vt 0.349695 0.933804
vt 0.342568 0.947920
vt 0.342707 0.948059
vt 0.299940 0.955187
vt 0.342707 0.933804
vt 0.328312 0.933665
vt 0.314056 0.955187
vt 0.353398 0.905154
vt 0.328312 0.919548
vt 0.328312 0.948059
vt 0.353398 0.898165
vt 0.328451 0.955187
vt 0.321323 0.948059
vt 0.328451 0.947920
vt 0.314196 0.933665
vt 0.321184 0.955048
vt 0.342568 0.933804
vt 0.321184 0.933665
vt 0.314196 0.955048
vt 0.342707 0.905154
vt 0.321184 0.919548
vt 0.342707 0.891037
vt 0.335440 0.955048
vt 0.314196 0.919548
vt 0.328451 0.955048
vt 0.328451 0.933804
vt 0.285684 0.948059
vt 0.349695 0.933665
vt 0.328312 0.940932
vt 0.285684 0.955048
vt 0.342707 0.933665
vt 0.335579 0.933665
vt 0.299801 0.955048
vt 0.335579 0.919548
vt 0.349695 0.926537
vt 0.299801 0.948059
vt 0.342707 0.926537
vt 0.314196 0.940932
vt 0.342707 0.919409
vt 0.349695 0.947920
vt 0.328312 0.933804
vt 0.349695 0.919409
vt 0.342707 0.947920
vt 0.328451 0.933665
vt 0.349695 0.905293
vt 0.328451 0.919548
vt 0.342568 0.955048
vt 0.342707 0.905293
vt 0.335579 0.955048
vt 0.314196 0.933804
vt 0.299940 0.948059
vt 0.349695 0.940793
vt 0.342568 0.940932
vt 0.299940 0.955048
vt 0.342707 0.940793
vt 0.321323 0.933665
vt 0.314056 0.955048
vt 0.321323 0.919548
vt 0.328312 0.955048
vt 0.314056 0.948059
vt 0.321323 0.955048
vt 0.328451 0.940932
s 1
usemtl Material.001
f 1/1/1 3/9/1 4/12/1 2/5/1
f 5/15/2 6/19/2 8/26/2 7/23/2
f 40/158/3 41/161/3 42/164/3 39/155/3
f 2/6/4 4/13/4 8/27/4 6/20/4
f 4/14/5 3/10/5 7/24/5 8/28/5
f 3/11/6 1/2/6 5/16/6 7/25/6
f 1/3/3 2/7/3 10/33/3 9/29/3
f 2/8/3 6/21/3 11/37/3 10/34/3
f 6/22/3 5/17/3 12/41/3 11/38/3
f 5/18/3 1/4/3 9/30/3 12/42/3
f 9/31/2 10/35/2 14/49/2 13/45/2
f 10/36/6 11/39/6 15/53/6 19/71/6 18/66/6 17/61/6 14/50/6
f 11/40/1 12/43/1 16/57/1 15/54/1
f 12/44/4 9/32/4 13/46/4 22/86/4 21/81/4 20/76/4 16/58/4
f 44/170/3 45/173/3 46/176/3 43/167/3
f 48/182/3 49/185/3 50/188/3 47/179/3
f 52/194/3 53/197/3 54/200/3 51/191/3
f 17/62/3 18/67/3 24/95/3 23/91/3
f 18/68/3 21/82/3 25/99/3 24/96/3
f 21/83/3 22/87/3 26/103/3 25/100/3
f 22/88/3 17/63/3 23/92/3 26/104/3
f 19/72/3 15/55/3 28/111/3 27/107/3
f 15/56/3 16/59/3 29/115/3 28/112/3
f 16/60/3 20/77/3 30/119/3 29/116/3
f 20/78/3 19/73/3 27/108/3 30/120/3
f 18/69/3 19/74/3 32/127/3 31/123/3
f 19/75/3 20/79/3 33/131/3 32/128/3
f 20/80/3 21/84/3 34/135/3 33/132/3
f 21/85/3 18/70/3 31/124/3 34/136/3
f 22/89/3 13/47/3 36/143/3 35/139/3
f 13/48/3 14/51/3 37/147/3 36/144/3
f 14/52/3 17/64/3 38/151/3 37/148/3
f 17/65/3 22/90/3 35/140/3 38/152/3
f 23/93/6 24/97/6 40/159/6 39/156/6
f 24/98/1 25/101/1 41/162/1 40/160/1
f 25/102/4 26/105/4 42/165/4 41/163/4
f 26/106/2 23/94/2 39/157/2 42/166/2
f 27/109/6 28/113/6 44/171/6 43/168/6
f 28/114/1 29/117/1 45/174/1 44/172/1
f 29/118/4 30/121/4 46/177/4 45/175/4
f 30/122/2 27/110/2 43/169/2 46/178/2
f 31/125/6 32/129/6 48/183/6 47/180/6
f 32/130/1 33/133/1 49/186/1 48/184/1
f 33/134/4 34/137/4 50/189/4 49/187/4
f 34/138/2 31/126/2 47/181/2 50/190/2
f 35/141/4 36/145/4 52/195/4 51/192/4
f 36/146/2 37/149/2 53/198/2 52/196/2
f 37/150/6 38/153/6 54/201/6 53/199/6
f 38/154/1 35/142/1 51/193/1 54/202/1
