# Blender 3.1.0
# www.blender.org
mtllib untitled.mtl
o Basic Pillow.002
v -0.141119 -0.129102 0.108992
v -0.177770 0.144944 0.013618
v -0.147618 -0.136885 0.086450
v -0.184105 0.130494 -0.016347
v 0.172191 -0.127302 -0.030096
v 0.136470 0.142359 -0.104634
v 0.164242 -0.136648 -0.050488
v 0.128393 0.132975 -0.131735
v 0.086185 -0.138503 -0.046994
v -0.007333 -0.136732 -0.019010
v -0.086279 -0.135479 0.027100
v -0.115676 0.103420 -0.048448
v -0.035791 0.085698 -0.092380
v 0.046400 0.101717 -0.118915
v -0.052334 -0.110140 0.102716
v 0.026703 -0.108126 0.075107
v 0.119807 -0.118857 0.034860
v 0.095101 0.143291 -0.045966
v 0.005154 0.126937 -0.000230
v -0.090601 0.138906 0.026177
v -0.116025 -0.066376 0.112632
v -0.109681 0.011457 0.091282
v -0.134054 0.089962 0.054345
v -0.163201 0.061973 -0.017054
v -0.150747 -0.021833 -0.004074
v -0.150363 -0.087199 0.034446
v 0.105965 0.059681 -0.138772
v 0.102428 -0.014427 -0.110263
v 0.127631 -0.085427 -0.094402
v 0.146769 0.092495 -0.059238
v 0.152671 0.021919 -0.014432
v 0.164036 -0.067708 -0.011645
v 0.099248 0.089596 -0.008795
v 0.111053 0.022310 0.030103
v 0.121568 -0.055526 0.049628
v 0.018556 0.089174 0.032382
v 0.032888 0.021948 0.071899
v 0.030333 -0.059788 0.081511
v -0.067967 0.085360 0.057196
v -0.050768 0.016359 0.096030
v -0.047705 -0.061407 0.110425
v -0.110960 0.050817 -0.048266
v -0.101580 -0.022744 -0.027065
v -0.097017 -0.092310 0.000883
v -0.034175 0.040631 -0.091564
v -0.025117 -0.024470 -0.069531
v -0.012821 -0.091721 -0.039240
v 0.048685 0.052150 -0.123897
v 0.057178 -0.020168 -0.101044
v 0.068640 -0.090005 -0.074831
v -0.035791 0.085698 -0.092380
v -0.153839 -0.140244 0.101217
v -0.188813 0.145170 -0.002241
v 0.177911 -0.140072 -0.044278
v 0.139234 0.146163 -0.120291
v 0.066278 0.138981 -0.084655
v -0.018736 0.122198 -0.056580
v -0.099983 0.138578 -0.017506
v -0.069994 -0.141478 0.069981
v 0.009853 -0.146210 0.032648
v 0.100443 -0.145166 -0.000727
v 0.177175 -0.073284 -0.059545
v 0.160458 0.002931 -0.071496
v 0.155805 0.077889 -0.101979
v -0.153060 -0.075811 0.084781
v -0.153737 -0.002700 0.059521
v -0.168995 0.072437 0.028039
vn -0.4011 -0.0342 0.2683
vn -0.3308 0.3065 -0.0319
vn -0.3190 0.0575 -0.4123
vn -0.3534 -0.0918 -0.3485
vn -0.0950 -0.0460 -0.5757
vn -0.1242 0.1645 -0.5268
vn 0.0437 0.1356 -0.5618
vn 0.0735 -0.0526 -0.5801
vn 0.4121 0.0118 -0.2417
vn 0.2076 0.3218 -0.3138
vn 0.2626 0.3481 0.1543
vn 0.3697 0.1583 0.2693
vn 0.0355 0.1975 0.5304
vn 0.0400 0.3851 0.3047
vn -0.1364 0.3219 0.3749
vn -0.1277 0.1283 0.5424
vn 0.0591 -0.4320 0.1542
vn 0.3262 -0.3062 -0.0806
vn 0.3411 -0.1370 0.3439
vn 0.1936 -0.1957 0.4694
vn -0.0020 0.4034 -0.2660
vn -0.1089 0.4089 -0.2067
vn 0.1069 0.3852 0.2755
vn -0.0663 0.3953 -0.2726
vn 0.0527 0.3898 0.2907
vn -0.2929 -0.2619 0.2918
vn 0.0277 -0.4267 0.1903
vn 0.0822 -0.1763 0.5343
vn -0.0728 -0.1136 0.5650
vn 0.0275 -0.4328 0.1652
vn 0.1098 -0.1942 0.5148
vn 0.1985 0.2102 0.4548
vn 0.1095 0.2158 0.4999
vn -0.1271 0.1244 -0.5443
vn -0.1785 -0.0648 -0.5372
vn -0.1379 0.1323 -0.5365
vn -0.1493 -0.0656 -0.5521
vn -0.0971 -0.3468 -0.3572
vn -0.1360 -0.1661 -0.5209
vn -0.0895 -0.1710 -0.5353
vn -0.0477 -0.3559 -0.3590
vn -0.1428 -0.1343 -0.5334
vn -0.0944 -0.1265 -0.5547
vn -0.1289 -0.3547 -0.3251
vn -0.1749 -0.1825 -0.4906
vn -0.1713 -0.1281 -0.5215
vn -0.2827 -0.3142 -0.2087
vn -0.3598 -0.1332 -0.3122
vn -0.3511 -0.1015 -0.3477
vn 0.1236 -0.0033 0.5695
vn 0.0617 0.0081 0.5864
vn 0.1208 0.1292 0.5448
vn 0.0415 0.1219 0.5675
vn 0.2306 0.0100 0.5089
vn 0.2198 0.1319 0.4875
vn 0.3847 0.0277 0.3080
vn 0.3748 0.1093 0.2975
vn -0.1057 0.0465 0.5724
vn -0.1180 0.1066 0.5541
vn 0.4159 0.0083 -0.2303
vn 0.4131 0.0115 -0.2386
vn 0.0702 -0.1221 -0.5625
vn 0.0862 -0.3104 -0.4149
vn 0.0640 -0.0947 -0.5728
vn -0.4040 0.0369 0.2600
vn -0.3965 0.0221 0.2819
vt 0.057296 0.816155
vt 0.072420 0.816155
vt 0.021700 0.836496
vt 0.031870 0.795815
vt 0.062382 0.795947
vt 0.041908 0.841581
vt 0.067334 0.785777
vt 0.072552 0.816155
vt 0.082590 0.826326
vt 0.067467 0.785777
vt 0.052079 0.806117
vt 0.082590 0.826458
vt 0.041908 0.821373
vt 0.052079 0.826326
vt 0.072552 0.785644
vt 0.067467 0.775606
vt 0.052211 0.816288
vt 0.082722 0.775606
vt 0.031870 0.831411
vt 0.031870 0.836496
vt 0.031738 0.841581
vt 0.062382 0.816288
vt 0.062382 0.836496
vt 0.057164 0.795947
vt 0.057164 0.816155
vt 0.041908 0.831411
vt 0.082590 0.806117
vt 0.021700 0.841581
vt 0.057164 0.806117
vt 0.021700 0.821241
vt 0.082590 0.816155
vt 0.052079 0.836496
vt 0.031738 0.821241
vt 0.067334 0.795815
vt 0.042041 0.836496
vt 0.082590 0.816288
vt 0.042041 0.806117
vt 0.057296 0.795947
vt 0.062249 0.836496
vt 0.082590 0.836496
vt 0.057296 0.805985
vt 0.041908 0.811203
vt 0.052211 0.836496
vt 0.077505 0.826458
vt 0.072420 0.816288
vt 0.031870 0.811203
vt 0.077505 0.836496
vt 0.072420 0.836496
vt 0.057296 0.806117
vt 0.042041 0.811203
vt 0.021700 0.826326
vt 0.072420 0.806117
vt 0.052079 0.811203
vt 0.052211 0.795815
vt 0.031738 0.826326
vt 0.067334 0.816155
vt 0.031870 0.821373
vt 0.052211 0.785777
vt 0.067334 0.806117
vt 0.042041 0.826326
vt 0.062249 0.816288
vt 0.062382 0.785644
vt 0.082722 0.780559
vt 0.041908 0.806117
vt 0.062382 0.775606
vt 0.031870 0.816288
vt 0.031870 0.806117
vt 0.057296 0.785777
vt 0.031870 0.785777
vt 0.062382 0.805985
vt 0.041908 0.816288
vt 0.057296 0.795815
vt 0.067467 0.816155
vt 0.031738 0.795815
vt 0.082590 0.785644
vt 0.031738 0.836496
vt 0.021700 0.795815
vt 0.062382 0.821373
vt 0.062382 0.831411
vt 0.082590 0.775606
vt 0.041908 0.795815
vt 0.072420 0.821373
vt 0.072420 0.831411
vt 0.031870 0.841581
vt 0.067467 0.795815
vt 0.052079 0.811070
vt 0.082590 0.785777
vt 0.072552 0.816288
vt 0.052079 0.821241
vt 0.082590 0.795815
vt 0.062249 0.826458
vt 0.072552 0.826326
vt 0.062382 0.785777
vt 0.042041 0.821241
vt 0.072552 0.806117
vt 0.052211 0.826458
vt 0.062382 0.821241
vt 0.052079 0.826458
vt 0.042041 0.785777
vt 0.057164 0.805985
vt 0.072552 0.795947
vt 0.042041 0.826458
vt 0.052079 0.785777
vt 0.082590 0.795947
vt 0.031870 0.826458
vt 0.072552 0.805985
vt 0.082590 0.805985
vt 0.041908 0.836496
vt 0.067467 0.785644
vt 0.087675 0.775606
vt 0.062249 0.826326
vt 0.072552 0.785777
vt 0.072420 0.795947
vt 0.052211 0.826326
vt 0.031738 0.826458
vt 0.072552 0.795815
vt 0.052079 0.821373
vt 0.072420 0.805985
vt 0.072552 0.775606
vt 0.021700 0.826458
vt 0.087675 0.780559
vt 0.041908 0.811070
vt 0.021700 0.775606
vt 0.062249 0.821373
vt 0.031870 0.775606
vt 0.031738 0.775606
vt 0.067467 0.795947
vt 0.052211 0.821373
vt 0.062382 0.806117
vt 0.041908 0.775606
vt 0.042041 0.821373
vt 0.067467 0.805985
vt 0.031870 0.811070
vt 0.062249 0.785777
vt 0.021700 0.795947
vt 0.021700 0.785644
vt 0.042041 0.775606
vt 0.031738 0.795947
vt 0.031870 0.785644
vt 0.031738 0.785644
vt 0.031738 0.821373
vt 0.052079 0.775606
vt 0.062382 0.816155
vt 0.041908 0.785644
vt 0.041908 0.785777
vt 0.062249 0.795815
vt 0.021700 0.805985
vt 0.072420 0.826326
vt 0.042041 0.785644
vt 0.031738 0.805985
vt 0.021700 0.785777
vt 0.062382 0.826326
vt 0.021700 0.821373
vt 0.052079 0.785644
vt 0.067467 0.806117
vt 0.031738 0.785777
vt 0.042041 0.811070
vt 0.062249 0.795947
vt 0.031870 0.795947
vt 0.077637 0.785777
vt 0.042041 0.795947
vt 0.041908 0.795947
vt 0.052079 0.816288
vt 0.077637 0.795815
vt 0.031738 0.816288
vt 0.052079 0.795947
vt 0.062382 0.795815
vt 0.042041 0.816288
vt 0.062249 0.805985
vt 0.041908 0.816155
vt 0.021700 0.806117
vt 0.031870 0.805985
vt 0.052211 0.775606
vt 0.031738 0.806117
vt 0.042041 0.805985
vt 0.041908 0.805985
vt 0.052211 0.806117
vt 0.062249 0.775606
vt 0.021700 0.816288
vt 0.052079 0.805985
vt 0.072420 0.821241
vt 0.031870 0.816155
vt 0.021700 0.816155
vt 0.052079 0.831411
vt 0.052211 0.785644
vt 0.031738 0.816155
vt 0.077505 0.795947
vt 0.042041 0.831411
vt 0.052211 0.816155
vt 0.062249 0.785644
vt 0.041908 0.826458
vt 0.077505 0.805985
vt 0.062249 0.816155
vt 0.077505 0.816155
vt 0.021700 0.831543
vt 0.077637 0.826326
vt 0.072420 0.785777
vt 0.067334 0.795947
vt 0.077637 0.826458
vt 0.041908 0.836628
vt 0.041908 0.826326
vt 0.077505 0.785644
vt 0.031870 0.831543
vt 0.031738 0.836628
vt 0.072420 0.775606
vt 0.052211 0.821241
vt 0.062382 0.831543
vt 0.052211 0.795947
vt 0.062249 0.821241
vt 0.067334 0.785644
vt 0.072552 0.836496
vt 0.072420 0.831543
vt 0.067334 0.775606
vt 0.031870 0.821241
vt 0.052211 0.831543
vt 0.072552 0.826458
vt 0.067334 0.805985
vt 0.041908 0.821241
vt 0.062249 0.831543
vt 0.077637 0.836496
vt 0.062249 0.806117
vt 0.042041 0.816155
vt 0.042041 0.831543
vt 0.077637 0.816288
vt 0.052079 0.816155
vt 0.057164 0.795815
vt 0.077637 0.816155
vt 0.052079 0.831543
vt 0.031870 0.826326
vt 0.057164 0.785777
vt 0.077637 0.806117
vt 0.021700 0.836628
vt 0.077505 0.775606
vt 0.021700 0.831411
vt 0.077637 0.805985
vt 0.041908 0.831543
vt 0.031738 0.831411
vt 0.077505 0.795815
vt 0.052079 0.795815
vt 0.077637 0.795947
vt 0.072420 0.785644
vt 0.077505 0.785777
vt 0.042041 0.795815
vt 0.052211 0.805985
vt 0.077505 0.806117
vt 0.052211 0.831411
vt 0.077637 0.785644
vt 0.031738 0.831543
vt 0.062249 0.831411
vt 0.077505 0.826326
vt 0.062382 0.826458
vt 0.077637 0.775606
vt 0.072420 0.795815
vt 0.077505 0.816288
vt 0.072420 0.826458
vt 0.031870 0.836628
s 1
usemtl Material.001
f 67/253/1 53/197/2 4/10/3 24/85/4
f 48/181/5 14/45/6 8/22/7 27/97/8
f 64/241/9 55/205/10 6/16/11 30/109/12
f 39/145/13 20/69/14 2/4/15 23/81/16
f 61/229/17 54/201/18 5/13/19 17/57/20
f 58/217/21 53/198/2 2/5/15 20/70/14
f 55/206/10 56/209/22 18/61/23 6/17/11
f 56/210/22 57/213/24 19/65/25 18/62/23
f 57/214/24 58/218/21 20/71/14 19/66/25
f 52/193/26 59/221/27 15/49/28 1/1/29
f 59/222/27 60/225/30 16/53/31 15/50/28
f 60/226/30 61/230/17 17/58/20 16/54/31
f 30/110/12 6/18/11 18/63/23 33/121/32
f 33/122/32 18/64/23 19/67/25 36/133/33
f 36/134/33 19/68/25 20/72/14 39/146/13
f 24/86/4 4/11/3 12/37/34 42/157/35
f 42/158/35 12/38/34 13/41/36 45/169/37
f 45/170/37 13/42/36 14/46/6 48/182/5
f 10/29/38 47/177/39 50/189/40 9/25/41
f 47/178/39 46/173/42 49/185/43 50/190/40
f 46/174/42 45/171/37 48/183/5 49/186/43
f 11/33/44 44/165/45 47/179/39 10/30/38
f 44/166/45 43/161/46 46/175/42 47/180/39
f 43/162/46 42/159/35 45/172/37 46/176/42
f 3/7/47 26/93/48 44/167/45 11/34/44
f 26/94/48 25/89/49 43/163/46 44/168/45
f 25/90/49 24/87/4 42/160/35 43/164/46
f 16/55/31 38/141/50 41/153/51 15/51/28
f 38/142/50 37/137/52 40/149/53 41/154/51
f 37/138/52 36/135/33 39/147/13 40/150/53
f 17/59/20 35/129/54 38/143/50 16/56/31
f 35/130/54 34/125/55 37/139/52 38/144/50
f 34/126/55 33/123/32 36/136/33 37/140/52
f 5/14/19 32/117/56 35/131/54 17/60/20
f 32/118/56 31/113/57 34/127/55 35/132/54
f 31/114/57 30/111/12 33/124/32 34/128/55
f 15/52/28 41/155/51 21/73/58 1/2/29
f 41/156/51 40/151/53 22/77/59 21/74/58
f 40/152/53 39/148/13 23/82/16 22/78/59
f 54/202/18 62/233/60 32/119/56 5/15/19
f 62/234/60 63/237/61 31/115/57 32/120/56
f 63/238/61 64/242/9 30/112/12 31/116/57
f 9/26/41 50/191/40 29/105/62 7/19/63
f 50/192/40 49/187/43 28/101/64 29/106/62
f 49/188/43 48/184/5 27/98/8 28/102/64
f 52/194/26 65/245/65 26/95/48 3/8/47
f 65/246/65 66/249/66 25/91/49 26/96/48
f 66/250/66 67/254/1 24/88/4 25/92/49
f 22/79/59 23/83/16 67/255/1 66/251/66
f 21/75/58 22/80/59 66/252/66 65/247/65
f 1/3/29 21/76/58 65/248/65 52/195/26
f 28/103/64 27/99/8 64/243/9 63/239/61
f 29/107/62 28/104/64 63/240/61 62/235/60
f 7/20/63 29/108/62 62/236/60 54/203/18
f 10/31/38 9/27/41 61/231/17 60/227/30
f 11/35/44 10/32/38 60/228/30 59/223/27
f 3/9/47 11/36/44 59/224/27 52/196/26
f 13/43/36 12/39/34 58/219/21 57/215/24
f 14/47/6 13/44/36 57/216/24 56/211/22
f 8/23/7 14/48/6 56/212/22 55/207/10
f 12/40/34 4/12/3 53/199/2 58/220/21
f 9/28/41 7/21/63 54/204/18 61/232/17
f 27/100/8 8/24/7 55/208/10 64/244/9
f 23/84/16 2/6/15 53/200/2 67/256/1
