# Blender 3.1.0
# www.blender.org
mtllib wall(middle).mtl
o wall(middle)
v 0.100000 0.460000 0.500000
v -0.100000 0.460000 0.500000
v -0.100000 -0.460000 0.500000
v 0.100000 -0.460000 0.500000
v -0.100000 0.460000 -0.500000
v -0.100000 -0.460000 -0.500000
v 0.100000 0.460000 -0.500000
v 0.100000 -0.460000 -0.500000
v 0.100000 -0.500000 0.500000
v -0.100000 -0.500000 0.500000
v -0.100000 -0.500000 -0.500000
v 0.100000 -0.500000 -0.500000
v 0.100000 0.500000 -0.500000
v -0.100000 0.500000 -0.500000
v -0.100000 0.500000 0.500000
v 0.100000 0.500000 0.500000
vn -0.0000 -0.0000 1.0000
vn -1.0000 -0.0000 -0.0000
vn -0.0000 -0.0000 -1.0000
vn 1.0000 -0.0000 -0.0000
vn -0.0000 -1.0000 -0.0000
vn -0.0000 1.0000 -0.0000
vt 0.412904 0.791945
vt 0.305296 0.856718
vt 0.148187 0.855723
vt 0.178123 0.962692
vt 0.391659 0.791945
vt 0.391313 0.770354
vt 0.148187 0.825787
vt 0.117764 0.916570
vt 0.391659 0.877963
vt 0.391313 0.856372
vt 0.592267 0.835243
vt 0.604328 0.884468
vt 0.412904 0.877963
vt 0.305296 0.942736
vt 0.610456 0.847696
vt 0.604328 0.896529
vt 0.305296 0.770354
vt 0.477677 0.791600
vt 0.117764 0.795363
vt 0.087340 0.977904
vt 0.305296 0.856372
vt 0.391659 0.791600
vt 0.629039 0.822986
vt 0.641100 0.835243
vt 0.477677 0.770354
vt 0.391313 0.856718
vt 0.056917 0.962692
vt 0.117276 0.977904
vt 0.391659 0.770354
vt 0.391313 0.942736
vt 0.641100 0.822986
vt 0.610456 0.896529
vt 0.616781 0.896529
vt 0.604524 0.847696
vt 0.598395 0.896529
vt 0.628842 0.896529
vt 0.592267 0.829311
vt 0.598395 0.884468
vt 0.628842 0.847696
vt 0.629039 0.817053
vt 0.641100 0.829311
vt 0.616781 0.847696
vt 0.641100 0.817053
vt 0.604524 0.896529
vt 0.178123 0.946993
vt 0.056917 0.977417
vt 0.117276 0.992628
vt 0.178123 0.917057
vt 0.132488 0.795363
vt 0.087340 0.992628
vt 0.056917 0.917057
vt 0.162911 0.825787
vt 0.132488 0.916570
vt 0.056917 0.946993
vt 0.162911 0.855723
vt 0.178123 0.977417
s 1
usemtl Material.005
f 1/1/1 2/5/1 3/9/1 4/13/1
f 2/6/2 5/17/2 6/21/2 3/10/2
f 5/18/3 7/25/3 8/29/3 6/22/3
f 7/26/4 1/2/4 4/14/4 8/30/4
f 9/33/5 10/36/5 11/39/5 12/42/5
f 12/43/3 11/40/3 6/23/3 8/31/3
f 9/34/4 12/44/4 8/32/4 4/15/4
f 11/41/2 10/37/2 3/11/2 6/24/2
f 10/38/1 9/35/1 4/16/1 3/12/1
f 13/45/6 14/48/6 15/51/6 16/54/6
f 16/55/1 15/52/1 2/7/1 1/3/1
f 13/46/4 16/56/4 1/4/4 7/27/4
f 15/53/2 14/49/2 5/19/2 2/8/2
f 14/50/3 13/47/3 7/28/3 5/20/3
