# Blender 3.1.0
# www.blender.org
mtllib wall_half (middle).mtl
o wall_half (middle)
v 0.100000 0.460000 0.250000
v -0.100000 0.460000 0.250000
v -0.100000 -0.460000 0.250000
v 0.100000 -0.460000 0.250000
v -0.100000 0.460000 -0.250000
v -0.100000 -0.460000 -0.250000
v 0.100000 0.460000 -0.250000
v 0.100000 -0.460000 -0.250000
v 0.100000 -0.500000 0.250000
v -0.100000 -0.500000 0.250000
v -0.100000 -0.500000 -0.250000
v 0.100000 -0.500000 -0.250000
v 0.100000 0.500000 -0.250000
v -0.100000 0.500000 -0.250000
v -0.100000 0.500000 0.250000
v 0.100000 0.500000 0.250000
vn -0.0000 -0.0000 1.0000
vn -1.0000 -0.0000 -0.0000
vn -0.0000 -0.0000 -1.0000
vn 1.0000 -0.0000 -0.0000
vn -0.0000 -1.0000 -0.0000
vn -0.0000 1.0000 -0.0000
vt 0.479849 0.792154
vt 0.417630 0.854373
vt 0.092138 0.961381
vt 0.195336 0.781775
vt 0.449175 0.792154
vt 0.417630 0.853937
vt 0.066789 0.961381
vt 0.066789 0.884613
vt 0.449175 0.916157
vt 0.293627 0.853937
vt 0.663430 0.840750
vt 0.636773 0.892958
vt 0.479849 0.916157
vt 0.293627 0.854373
vt 0.610854 0.840750
vt 0.610854 0.892958
vt 0.417630 0.792154
vt 0.448739 0.792154
vt 0.117848 0.884613
vt 0.066429 0.961381
vt 0.293627 0.792154
vt 0.448739 0.916157
vt 0.637142 0.892958
vt 0.663430 0.892958
vt 0.418066 0.792154
vt 0.417630 0.916157
vt 0.195336 0.832834
vt 0.041080 0.961381
vt 0.418066 0.916157
vt 0.293627 0.916157
vt 0.663061 0.892958
vt 0.663061 0.840750
vt 0.557909 0.840750
vt 0.610854 0.866670
vt 0.610854 0.867038
vt 0.531989 0.840750
vt 0.689350 0.840750
vt 0.636773 0.867038
vt 0.531989 0.892958
vt 0.637142 0.867038
vt 0.689350 0.892958
vt 0.557909 0.892958
vt 0.663061 0.867038
vt 0.663061 0.866670
vt 0.117848 0.935672
vt 0.220685 0.832834
vt 0.041080 0.936032
vt 0.117848 0.910323
vt 0.117848 0.909962
vt 0.066429 0.936032
vt 0.066789 0.910323
vt 0.066789 0.936032
vt 0.066789 0.909962
vt 0.066789 0.935672
vt 0.092138 0.936032
vt 0.220685 0.781775
s 1
usemtl Material.001
f 1/1/1 2/5/1 3/9/1 4/13/1
f 2/6/2 5/17/2 6/21/2 3/10/2
f 5/18/3 7/25/3 8/29/3 6/22/3
f 7/26/4 1/2/4 4/14/4 8/30/4
f 9/33/5 10/36/5 11/39/5 12/42/5
f 12/43/3 11/40/3 6/23/3 8/31/3
f 9/34/4 12/44/4 8/32/4 4/15/4
f 11/41/2 10/37/2 3/11/2 6/24/2
f 10/38/1 9/35/1 4/16/1 3/12/1
f 13/45/6 14/48/6 15/51/6 16/54/6
f 16/55/1 15/52/1 2/7/1 1/3/1
f 13/46/4 16/56/4 1/4/4 7/27/4
f 15/53/2 14/49/2 5/19/2 2/8/2
f 14/50/3 13/47/3 7/28/3 5/20/3
